<?xml version="1.0" encoding="UTF-8"?>
<svg width="371px" height="60px" viewBox="0 0 371 60" version="1.1" xmlns="http://www.w3.org/2000/svg" xmlns:xlink="http://www.w3.org/1999/xlink">
    <!-- Generator: Sketch 50.2 (55047) - http://www.bohemiancoding.com/sketch -->
    <title>Group 4</title>
    <desc>Created with Sketch.</desc>
    <defs>
        <polygon id="path-1" points="0 0.0159113924 59.9843544 0.0159113924 59.9843544 59.999962 0 59.999962"></polygon>
    </defs>
    <g id="Page-1" stroke="none" stroke-width="1" fill="none" fill-rule="evenodd">
        <g id="New-landing-page-Copy-5" transform="translate(-662.000000, -169.000000)">
            <g id="Group-4" transform="translate(662.000000, 169.000000)">
                <text id="DECENTRALIZED-PREDIC-Copy" opacity="0.899999976" font-family="MotivaSans-Regular, Motiva Sans" font-size="15" font-weight="normal" fill="#9B9B9B">
                    <tspan x="73" y="50">DECENTRALIZED PREDICTION EXCHANGE</tspan>
                </text>
                <path d="M72.5572375,22.0432161 L72.5572375,17.3507538 C74.8155156,18.8663317 77.6603595,19.5366834 79.3320719,19.5366834 C81.0331126,19.5366834 82.2942289,18.8663317 82.2942289,17.2924623 C82.2942289,15.3396985 80.2999054,15.1648241 77.5723746,14.2904523 C74.6395459,13.3286432 72,11.9005025 72,8.2281407 C72,4.29346734 74.9914853,1.84522613 79.4493851,1.84522613 C81.5316935,1.84522613 84.0832545,2.36984925 85.9309366,3.36080402 L85.9309366,7.93668342 C83.6726585,6.53768844 81.0624409,5.89648241 79.4200568,5.89648241 C77.8363292,5.89648241 76.692526,6.47939698 76.692526,7.87839196 C76.692526,9.74371859 78.6575213,9.88944724 81.2090823,10.7346734 C84.4058657,11.7839196 86.986755,13.2703518 86.986755,17.001005 C86.986755,21.1105528 83.8486282,23.5879397 79.2734153,23.5879397 C77.1617786,23.5879397 74.551561,23.0633166 72.5572375,22.0432161 Z M89.6263009,23.2673367 L89.6263009,1 L94.0842006,1 L94.0842006,10.2100503 L94.1428571,10.239196 C95.1986755,9.36482412 96.7237465,8.60703518 98.5421003,8.60703518 C100.067171,8.60703518 101.416272,9.13165829 102.325449,10.0643216 C103.205298,10.9969849 103.586566,12.2502513 103.586566,14.319598 L103.586566,23.2673367 L99.128666,23.2673367 L99.128666,15.0482412 C99.128666,13.9698492 98.9820246,13.4452261 98.6300851,13.0371859 C98.2488174,12.6 97.7209082,12.4251256 97.1050142,12.4251256 C95.961211,12.4251256 94.8760643,13.0080402 94.0842006,13.6201005 L94.0842006,23.2673367 L89.6263009,23.2673367 Z M115.405866,22.3929648 L115.347209,22.3929648 C114.408704,23.0633166 112.971618,23.5879397 111.329234,23.5879397 C110.097446,23.5879397 108.924314,23.2964824 107.985809,22.6552764 C106.929991,21.9266332 106.284768,20.7899497 106.284768,19.3035176 C106.284768,17.7296482 107.017975,16.5346734 108.044465,15.8351759 C109.15894,15.0773869 110.596026,14.8150754 112.091769,14.8150754 C112.942289,14.8150754 113.79281,14.9025126 114.584674,15.0773869 L114.584674,14.5236181 C114.584674,13.8241206 114.350047,13.2994975 114.027436,13.0080402 C113.61684,12.6291457 112.854305,12.3959799 111.798486,12.3959799 C110.18543,12.3959799 108.719016,12.920603 107.575213,13.5326633 L107.575213,9.71457286 C108.748344,9.13165829 110.508042,8.60703518 112.619678,8.60703518 C114.555345,8.60703518 116.285714,9.04422111 117.429518,9.97688442 C118.514664,10.8512563 119.042573,12.1336683 119.042573,13.9407035 L119.042573,18.8080402 C119.042573,19.478392 119.306528,19.9447236 119.922422,19.9447236 C120.157048,19.9447236 120.421003,19.8864322 120.655629,19.7698492 L120.655629,23.0924623 C120.157048,23.3547739 119.365184,23.5296482 118.514664,23.5296482 C117.341533,23.5296482 116.197729,23.2090452 115.405866,22.3929648 Z M114.584674,19.7407035 L114.584674,17.6422111 C114.115421,17.4964824 113.470199,17.438191 113.000946,17.438191 C111.857143,17.438191 110.71334,17.7879397 110.71334,18.8954774 C110.71334,19.8281407 111.534532,20.3236181 112.561022,20.3236181 C113.323557,20.3236181 114.056764,20.0613065 114.584674,19.7407035 Z M122.972564,23.2673367 L122.972564,1 L127.430464,1 L127.430464,14.9899497 L127.48912,15.0190955 L132.533586,8.92763819 L137.607379,8.92763819 L132.093661,15.3396985 L138.017975,23.2673367 L132.738884,23.2673367 L127.48912,15.9517588 L127.430464,15.9809045 L127.430464,23.2673367 L122.972564,23.2673367 Z M153.473983,17.2633166 L143.678335,17.2633166 C144.176916,19.2452261 145.8193,20.1487437 147.87228,20.1487437 C149.485336,20.1487437 151.245033,19.5949749 152.770104,18.5748744 L152.770104,22.2763819 C151.362346,23.1507538 149.192053,23.5879397 147.285714,23.5879397 C142.534532,23.5879397 139.103122,20.6442211 139.103122,16.1557789 C139.103122,11.5798995 142.681173,8.60703518 146.66982,8.60703518 C150.218543,8.60703518 153.561968,10.9386935 153.561968,15.7477387 C153.561968,16.2432161 153.53264,16.8844221 153.473983,17.2633166 Z M143.649007,14.4653266 L149.456008,14.4653266 C149.192053,12.920603 148.04825,11.9879397 146.611164,11.9879397 C145.232734,11.9879397 144.030274,12.8331658 143.649007,14.4653266 Z M171.393567,23.2673367 L165.029328,14.7567839 C163.650899,12.920603 162.360454,11.1427136 161.040681,9.30653266 L160.982025,9.33567839 C161.011353,11.3467337 161.040681,13.3869347 161.040681,15.4271357 L161.040681,23.2673367 L156.553453,23.2673367 L156.553453,2.16582915 L160.952696,2.16582915 L167.316935,10.6763819 C168.695364,12.5125628 169.985809,14.2904523 171.305582,16.1266332 L171.364238,16.0974874 C171.33491,14.0864322 171.305582,12.0462312 171.305582,10.0060302 L171.305582,2.16582915 L175.79281,2.16582915 L175.79281,23.2673367 L171.393567,23.2673367 Z M179.224219,4.38090452 C179.224219,2.98190955 180.397351,1.84522613 181.805109,1.84522613 C183.212867,1.84522613 184.385998,2.98190955 184.385998,4.38090452 C184.385998,5.7798995 183.212867,6.91658291 181.805109,6.91658291 C180.397351,6.91658291 179.224219,5.7798995 179.224219,4.38090452 Z M179.576159,23.2673367 L179.576159,8.92763819 L184.034059,8.92763819 L184.034059,23.2673367 L179.576159,23.2673367 Z M187.729423,23.2673367 L187.729423,8.92763819 L192.128666,8.92763819 L192.128666,10.239196 L192.187323,10.2683417 C193.301798,9.36482412 194.826868,8.60703518 196.645222,8.60703518 C198.170293,8.60703518 199.519395,9.13165829 200.428571,10.0643216 C201.30842,10.9969849 201.689688,12.2502513 201.689688,14.319598 L201.689688,23.2673367 L197.231788,23.2673367 L197.231788,15.0482412 C197.231788,13.9698492 197.085147,13.4452261 196.733207,13.0371859 C196.351939,12.6 195.82403,12.4251256 195.208136,12.4251256 C194.064333,12.4251256 192.979186,13.0080402 192.187323,13.6201005 L192.187323,23.2673367 L187.729423,23.2673367 Z M205.062441,4.38090452 C205.062441,2.98190955 206.235572,1.84522613 207.64333,1.84522613 C209.051088,1.84522613 210.224219,2.98190955 210.224219,4.38090452 C210.224219,5.7798995 209.051088,6.91658291 207.64333,6.91658291 C206.235572,6.91658291 205.062441,5.7798995 205.062441,4.38090452 Z M205.41438,23.9668342 L205.41438,8.92763819 L209.87228,8.92763819 L209.87228,23.6753769 C209.87228,26.3276382 209.403027,27.5809045 208.552507,28.4552764 C207.46736,29.5628141 205.736991,30 204.182592,30 C203.3614,30 202.598865,29.8834171 202.15894,29.7668342 L202.15894,26.1236181 C202.628193,26.2110553 203.214759,26.2693467 203.625355,26.2693467 C205.179754,26.2693467 205.41438,25.4241206 205.41438,23.9668342 Z M221.750237,22.3929648 L221.69158,22.3929648 C220.753075,23.0633166 219.315989,23.5879397 217.673605,23.5879397 C216.441816,23.5879397 215.268685,23.2964824 214.33018,22.6552764 C213.274361,21.9266332 212.629139,20.7899497 212.629139,19.3035176 C212.629139,17.7296482 213.362346,16.5346734 214.388836,15.8351759 C215.503311,15.0773869 216.940397,14.8150754 218.43614,14.8150754 C219.28666,14.8150754 220.137181,14.9025126 220.929044,15.0773869 L220.929044,14.5236181 C220.929044,13.8241206 220.694418,13.2994975 220.371807,13.0080402 C219.961211,12.6291457 219.198675,12.3959799 218.142857,12.3959799 C216.529801,12.3959799 215.063387,12.920603 213.919584,13.5326633 L213.919584,9.71457286 C215.092715,9.13165829 216.852412,8.60703518 218.964049,8.60703518 C220.899716,8.60703518 222.630085,9.04422111 223.773888,9.97688442 C224.859035,10.8512563 225.386944,12.1336683 225.386944,13.9407035 L225.386944,18.8080402 C225.386944,19.478392 225.650899,19.9447236 226.266793,19.9447236 C226.501419,19.9447236 226.765374,19.8864322 227,19.7698492 L227,23.0924623 C226.501419,23.3547739 225.709555,23.5296482 224.859035,23.5296482 C223.685904,23.5296482 222.5421,23.2090452 221.750237,22.3929648 Z M220.929044,19.7407035 L220.929044,17.6422111 C220.459792,17.4964824 219.81457,17.438191 219.345317,17.438191 C218.201514,17.438191 217.057711,17.7879397 217.057711,18.8954774 C217.057711,19.8281407 217.878903,20.3236181 218.905393,20.3236181 C219.667928,20.3236181 220.401135,20.0613065 220.929044,19.7407035 Z" id="ShakeNinja" fill="#FFFFFF"></path>
                <g id="Group-7-Copy">
                    <path d="M59,30 C59,46.0162881 46.0161417,59 30.0000943,59 C13.9838583,59 1,46.0162881 1,30 C1,13.9837119 13.9838583,1 30.0000943,1 C46.0161417,1 59,13.9837119 59,30" id="Fill-1" fill="#020303"></path>
                    <g id="Group-9">
                        <mask id="mask-2" fill="white">
                            <use xlink:href="#path-1"></use>
                        </mask>
                        <g id="Clip-8"></g>
                        <path d="M49.7397342,49.7553418 C47.1741646,52.3207215 44.1876456,54.3343291 40.8618228,55.7407215 C40.5384684,55.8781899 40.2116962,56.0063544 39.8843544,56.1307215 L39.8843544,45.9711646 L39.8807468,43.312557 C39.8562532,42.3043291 39.5592911,41.3638861 39.0593544,40.5626203 C43.3820127,37.6463544 46.224038,32.7037595 46.224038,27.0977468 C46.224038,18.1332532 38.9568228,10.8662278 29.9921392,10.8662278 C21.0278354,10.8662278 13.7606203,18.1332532 13.7606203,27.0977468 C13.7606203,32.7037595 16.6028354,37.6463544 20.9249241,40.5622405 C20.4080886,41.3916076 20.1071392,42.3688861 20.1006835,43.4164177 L16.9691013,41.1077468 C17.0296709,41.0071139 17.0885316,40.906481 17.1453038,40.807557 C17.3376456,40.4686329 17.4999873,40.1403418 17.6262532,39.8496456 C17.7528987,39.559519 17.8432785,39.3067975 17.8991013,39.1247089 C17.956443,38.9441392 17.9797975,38.8338228 17.9797975,38.8338228 C17.9797975,38.8338228 17.8841013,38.8930633 17.7341013,39.0088861 C17.5820127,39.1235696 17.3748608,39.2944557 17.1453038,39.5126203 C16.9151772,39.7304051 16.6618861,39.9950886 16.4091646,40.2916709 C16.3400506,40.3729367 16.2703671,40.456481 16.2008734,40.5417342 L12.2399241,37.5595823 L10.5754937,39.779962 L14.6125823,42.8207848 C14.6063165,42.8319873 14.5987215,42.8431899 14.5928354,42.8542025 C14.4004937,43.1931266 14.237962,43.5214177 14.1116962,43.8119241 C13.9846709,44.1020506 13.894481,44.3547722 13.8382785,44.536481 C13.7803671,44.7170506 13.7570127,44.8269873 13.7570127,44.8269873 C13.7570127,44.8269873 13.852519,44.767557 14.002519,44.6515443 C14.154038,44.5366709 14.3608101,44.3657848 14.590557,44.1474304 C14.8204937,43.9296456 15.0734051,43.664962 15.3268861,43.3683797 C15.3303038,43.3642025 15.3339114,43.3594557 15.3373291,43.3552785 L20.0834051,46.7600886 L20.0997342,56.1307215 C19.7725823,56.0063544 19.4461899,55.8781899 19.1224557,55.7407215 C15.7972025,54.3343291 12.8104937,52.3207215 10.2449241,49.7553418 C7.67935443,47.1897722 5.66536709,44.2026835 4.25916456,40.8774304 C2.80340506,37.4361646 2.06536709,33.7786329 2.06536709,30.0077468 C2.06536709,26.2370506 2.80340506,22.5797089 4.25916456,19.1378734 C5.66536709,15.8126203 7.67935443,12.8259114 10.2449241,10.2603418 C12.8104937,7.6951519 15.7972025,5.68116456 19.1224557,4.27458228 C22.5641013,2.81882278 26.2210633,2.08097468 29.9921392,2.08097468 C33.7632152,2.08097468 37.4201772,2.81882278 40.8618228,4.27458228 C44.1876456,5.68116456 47.1741646,7.6951519 49.7397342,10.2603418 C52.3049241,12.8259114 54.3189114,15.8126203 55.7254937,19.1378734 C57.1812532,22.5797089 57.9192911,26.2370506 57.9192911,30.0077468 C57.9192911,33.7786329 57.1812532,37.4361646 55.7254937,40.8774304 C54.3189114,44.2026835 52.3049241,47.1897722 49.7397342,49.7553418 M21.3973291,27.7450253 C19.6142278,28.3666709 17.941443,28.0621139 17.6361266,26.2600253 C17.6361266,26.2600253 17.544038,25.4523038 17.6228354,25.0596456 C17.6710633,24.7294557 17.7620127,24.412557 17.8896076,24.1157848 C19.2669494,20.3747089 24.1632152,17.608443 29.9921392,17.608443 C35.8210633,17.608443 40.7173291,20.374519 42.0950506,24.1148354 C42.2226456,24.412557 42.3137848,24.7294557 42.3620127,25.0604051 C42.4404304,25.4526835 42.3481519,26.2600253 42.3481519,26.2600253 C42.0432152,28.0621139 40.3068228,28.5257848 38.587519,27.7450253 C34.9537215,26.0948354 26.3253038,26.0259114 21.3973291,27.7450253 M29.9921392,0.0159113924 C13.4281519,0.0159113924 -7.59493671e-05,13.4435696 -7.59493671e-05,30.0077468 C-7.59493671e-05,43.1055949 8.39688608,54.2401519 20.0997342,58.3279367 C23.197519,59.4096456 26.5258101,59.999962 29.9921392,59.999962 C33.4588481,59.999962 36.7871392,59.4096456 39.8843544,58.3279367 C51.5877722,54.2401519 59.9843544,43.1055949 59.9843544,30.0077468 C59.9843544,13.4435696 46.5566962,0.0159113924 29.9921392,0.0159113924" id="Fill-7" fill="#FEFEFE" mask="url(#mask-2)"></path>
                    </g>
                </g>
            </g>
        </g>
    </g>
</svg>