<?xml version="1.0" encoding="utf-8"?>
<!-- Generator: Adobe Illustrator 22.0.0, SVG Export Plug-In . SVG Version: 6.00 Build 0)  -->
<svg version="1.1" id="Layer_1" xmlns="http://www.w3.org/2000/svg" xmlns:xlink="http://www.w3.org/1999/xlink" x="0px" y="0px"
	 viewBox="0 0 200 200" style="enable-background:new 0 0 200 200;" xml:space="preserve">
<style type="text/css">
	.st0{fill:#FFFFFF;}
</style>
<g>
	<path d="M100.4,1.6C46.3,1.6,2.5,45.4,2.5,99.5c0,8.3,1,16.4,3,24.2l28.1-57.2h0.1c7.7-17.1,23-28.7,40.6-28.7s32.9,11.6,40.6,28.7
		h0.1l51.7,105.3c19.6-17.9,31.8-43.6,31.8-72.2C198.4,45.4,154.5,1.6,100.4,1.6z"/>
	<path d="M102.2,111.8c-5.3-16.4-15.8-27.6-27.9-27.6c-12.1,0-22.6,11.2-27.9,27.6h0L27.6,165c17.9,19.9,43.9,32.5,72.9,32.5
		c10.5,0,20.7-1.7,30.2-4.7L102.2,111.8L102.2,111.8z"/>
</g>
<path class="st0" d="M114.8,66.5c-7.7-17.1-23-28.7-40.6-28.7S41.4,49.4,33.7,66.5h-0.1L5.5,123.7c4,15.6,11.6,29.7,22.1,41.3
	l18.7-53.1h0c5.3-16.4,15.8-27.6,27.9-27.6c12.1,0,22.6,11.2,27.9,27.6h0l28.4,80.9c13.5-4.4,25.7-11.6,35.9-20.9L114.8,66.5
	L114.8,66.5z"/>
<g>
	<polygon class="st0" points="146,111.8 161.8,144.4 166.3,133.9 150.4,101.3 	"/>
	<path class="st0" d="M189.6,73.3c-0.9-7.4-7.7-12.7-15.1-11.7c-4.7,0.6-8.6,3.6-10.5,7.6l-0.1,0l-9.4,22.4l15.8,32.6l18-42.9
		l-0.1-0.1C189.4,78.9,190,76.2,189.6,73.3z"/>
</g>
</svg>
