<?xml version="1.0" encoding="UTF-8"?>
<svg width="14px" height="16px" viewBox="0 0 14 16" version="1.1" xmlns="http://www.w3.org/2000/svg" xmlns:xlink="http://www.w3.org/1999/xlink">
    <!-- Generator: Sketch 52.1 (67048) - http://www.bohemiancoding.com/sketch -->
    <title>icons8-coins copy</title>
    <desc>Created with Sketch.</desc>
    <g id="Page-1" stroke="none" stroke-width="1" fill="none" fill-rule="evenodd">
        <g id="Place-bet" transform="translate(-256.000000, -563.000000)" fill-rule="nonzero">
            <g id="icons8-coins-copy" transform="translate(256.000000, 563.000000)">
                <g id="icons8-coins">
                    <g id="Group" transform="translate(5.444444, 0.000000)" fill="#FFC107">
                        <path d="M0,1.94444444 L0,12.0555556 L0,12.8333333 C0,12.8333333 0.388888889,14 4.27777778,14 C8.16666667,14 8.55555556,12.8333333 8.55555556,12.8333333 L8.55555556,11.2777778 L8.55555556,1.94444444 L0,1.94444444 Z" id="Shape"></path>
                        <ellipse id="Oval" cx="4.27777778" cy="1.16666667" rx="4.27777778" ry="1.16666667"></ellipse>
                    </g>
                    <path d="M5.44444444,3.5 C5.44444444,3.5 5.83333333,4.66666667 9.72222222,4.66666667 C13.6111111,4.66666667 14,3.5 14,3.5 L14,4.66666667 C14,4.66666667 13.6111111,5.83333333 9.72222222,5.83333333 C5.83333333,5.83333333 5.44444444,4.66666667 5.44444444,4.66666667 L5.44444444,3.5 Z M5.44444444,7 C5.44444444,7 5.83333333,8.16666667 9.72222222,8.16666667 C13.6111111,8.16666667 14,7 14,7 L14,5.83333333 C14,5.83333333 13.6111111,7 9.72222222,7 C5.83333333,7 5.44444444,5.83333333 5.44444444,5.83333333 L5.44444444,7 Z M5.44444444,9.33333333 C5.44444444,9.33333333 5.83333333,10.5 9.72222222,10.5 C13.6111111,10.5 14,9.33333333 14,9.33333333 L14,8.16666667 C14,8.16666667 13.6111111,9.33333333 9.72222222,9.33333333 C5.83333333,9.33333333 5.44444444,8.16666667 5.44444444,8.16666667 L5.44444444,9.33333333 Z M5.44444444,11.6666667 C5.44444444,11.6666667 5.83333333,12.8333333 9.72222222,12.8333333 C13.6111111,12.8333333 14,11.6666667 14,11.6666667 L14,10.5 C14,10.5 13.6111111,11.6666667 9.72222222,11.6666667 C5.83333333,11.6666667 5.44444444,10.5 5.44444444,10.5 L5.44444444,11.6666667 Z M5.44444444,2.33333333 C5.44444444,2.33333333 5.83333333,3.5 9.72222222,3.5 C13.6111111,3.5 14,2.33333333 14,2.33333333 L14,1.16666667 C14,1.16666667 13.6111111,2.33333333 9.72222222,2.33333333 C5.83333333,2.33333333 5.44444444,1.16666667 5.44444444,1.16666667 L5.44444444,2.33333333 Z" id="Shape" fill="#FF9800"></path>
                    <path d="M8.55555556,10.8248449 L8.55555556,12.4322157 L8.55555556,13.6084459 L8.55555556,13.9576698 C8.90594444,13.9835383 9.28938889,14 9.72222222,14 C9.8595,14 9.98277778,13.9952966 10.1111111,13.9921611 L10.1111111,13.6084459 L10.1111111,12.4322157 L10.1111111,10.8248449 C10.1111111,8.80475487 7.54288889,8.41476853 5.46661111,8.16666667 L5.44444444,9.69447244 C7.23916667,9.83439719 8.55555556,10.2867029 8.55555556,10.8248449 Z" id="Shape" fill="#F57C00"></path>
                    <g id="Group" transform="translate(5.444444, 8.166667)" fill="#D66805">
                        <path d="M4.27777778,2.33333333 C4.40455556,2.33333333 4.51927778,2.32905556 4.6375,2.32633333 C4.55311111,1.83244444 4.28788889,1.456 3.91183333,1.15966667 C0.803444444,1.09588889 0.1365,0.250833333 0.0221666667,0.0455 L0.0116666667,0.784388889 C1.80055556,0.924 3.1115,1.37238889 3.1115,1.90516667 L3.1115,2.29094444 C3.4615,2.317 3.84494444,2.33333333 4.27777778,2.33333333 Z" id="Shape"></path>
                        <path d="M3.11111111,3.458 L3.11111111,4.27777778 L3.11111111,4.62466667 C3.4615,4.65033333 3.84494444,4.66666667 4.27777778,4.66666667 C4.41505556,4.66666667 4.53833333,4.662 4.66666667,4.65888889 L4.66666667,4.27777778 L4.66666667,3.49222222 C4.53833333,3.49533333 4.41505556,3.5 4.27777778,3.5 C3.84494444,3.5 3.4615,3.48366667 3.11111111,3.458 Z" id="Shape"></path>
                    </g>
                    <g id="Group" transform="translate(0.000000, 8.166667)" fill="#CFD8DC">
                        <polygon id="Rectangle-path" points="0 1.55555556 8.55555556 1.55555556 8.55555556 5.05594444 0 5.05594444"></polygon>
                        <path d="M0,4.27777778 C0,4.27777778 0.388888889,5.44444444 4.27777778,5.44444444 C8.16666667,5.44444444 8.55555556,4.27777778 8.55555556,4.27777778 L8.55555556,5.83333333 C8.55555556,5.83333333 8.16666667,7 4.27777778,7 C0.388888889,7 0,5.83333333 0,5.83333333 L0,4.27777778 Z" id="Shape"></path>
                        <ellipse id="Oval" cx="4.27777778" cy="1.16666667" rx="4.27777778" ry="1.16666667"></ellipse>
                    </g>
                    <g id="Group" transform="translate(0.000000, 9.333333)" fill="#90A4AE">
                        <path d="M0,0 C0,0 0.388888889,1.16666667 4.27777778,1.16666667 C8.16666667,1.16666667 8.55555556,0 8.55555556,0 L8.55555556,1.16666667 C8.55555556,1.16666667 8.16666667,2.33333333 4.27777778,2.33333333 C0.388888889,2.33333333 0,1.16666667 0,1.16666667 L0,0 Z" id="Shape"></path>
                        <path d="M0,2.33333333 C0,2.33333333 0.388888889,3.5 4.27777778,3.5 C8.16666667,3.5 8.55555556,2.33333333 8.55555556,2.33333333 L8.55555556,3.5 C8.55555556,3.5 8.16666667,4.66666667 4.27777778,4.66666667 C0.388888889,4.66666667 0,3.5 0,3.5 L0,2.33333333 Z" id="Shape"></path>
                    </g>
                </g>
            </g>
        </g>
    </g>
</svg>