<?xml version="1.0" encoding="UTF-8"?>
<svg width="30px" height="30px" viewBox="0 0 30 30" version="1.1" xmlns="http://www.w3.org/2000/svg" xmlns:xlink="http://www.w3.org/1999/xlink">
  <defs>
    <polygon id="path-1" points="0 0.0858109756 29.9488532 0.0858109756 29.9488532 26.0262988 0 26.0262988"></polygon>
  </defs>
  <g id="Page-1" stroke="none" stroke-width="1" fill="none" fill-rule="evenodd">
    <g id="Buy-coin" transform="translate(-1048.000000, -523.000000)">
      <g id="Group-4" transform="translate(1048.000000, 523.000000)">
        <g id="Group-3" transform="translate(0.000000, 0.005671)">
          <mask id="mask-2" fill="white">
            <use xlink:href="#path-1"></use>
          </mask>
          <g id="Clip-2"></g>
          <path d="M14.9744495,0.0858109756 C6.70426606,0.0858109756 -4.58715596e-05,6.76968293 -4.58715596e-05,15.014561 C-4.58715596e-05,16.2852622 0.159770642,17.5186463 0.45940367,18.6964207 L4.75646789,9.97346341 L4.765,9.97346341 C5.9437156,7.37178659 8.27811927,5.59922561 10.9666514,5.59922561 C13.6552752,5.59922561 15.9895872,7.37178659 17.1683028,9.97346341 L17.1769266,9.97346341 L25.0848165,26.0262988 C28.0740826,23.296939 29.9488532,19.3742561 29.9488532,15.014561 C29.9488532,6.76968293 23.244633,0.0858109756 14.9744495,0.0858109756" id="Fill-1" fill="#0A2240" mask="url(#mask-2)"></path>
        </g>
        <path d="M15.2375413,16.8975274 C14.4257982,14.394814 12.8181835,12.6896616 10.9667156,12.6896616 C9.11515596,12.6896616 7.50754128,14.394814 6.69588991,16.8975274 L6.68992661,16.8975274 L3.83423853,24.9952409 C6.57543119,28.0360335 10.5506606,29.9490823 14.974422,29.9490823 C16.5850642,29.9490823 18.1357982,29.6945396 19.5897431,29.2253323 L15.2434128,16.8975274 L15.2375413,16.8975274 Z" id="Fill-4" fill="#0A2240"></path>
        <path d="M17.1683119,9.97913415 C15.9895963,7.37745732 13.6552844,5.60489634 10.9666606,5.60489634 C8.27812844,5.60489634 5.94372477,7.37745732 4.76500917,9.97913415 L4.75638532,9.97913415 L0.459412844,18.7020915 C1.06409174,21.0785854 2.24051376,23.2274268 3.83418349,24.9952317 L6.6899633,16.8975183 L6.69583486,16.8975183 C7.50757798,14.3948049 9.11519266,12.6896524 10.9666606,12.6896524 C12.8182202,12.6896524 14.4257431,14.3948049 15.237578,16.8975183 L15.2434495,16.8975183 L19.5897798,29.2253232 C21.6538165,28.5592866 23.5217064,27.4591646 25.0848257,26.0319695 L17.1769358,9.97913415 L17.1683119,9.97913415 Z" id="Fill-12" fill="#FEFEFE"></path>
        <polygon id="Fill-14" fill="#FEFEFE" points="21.9424037 16.8906037 24.3643303 21.8576159 25.0378165 20.2570061 22.6157982 15.2899939"></polygon>
        <path d="M28.6075321,11.0273872 C28.4633119,9.89580183 27.4262477,9.09503963 26.2911101,9.23891159 C25.5691835,9.330375 24.9827615,9.78257012 24.6877156,10.3903445 L24.6791835,10.3860457 L23.2408349,13.8045823 L25.6627615,18.771503 L28.4121193,12.2371738 L28.3959725,12.229125 C28.5801927,11.8713201 28.6623028,11.4565335 28.6075321,11.0273872" id="Fill-16" fill="#FEFEFE"></path>
      </g>
    </g>
  </g>
</svg>
