<?xml version="1.0" encoding="UTF-8"?>
<svg width="38px" height="38px" viewBox="0 0 38 38" version="1.1" xmlns="http://www.w3.org/2000/svg" xmlns:xlink="http://www.w3.org/1999/xlink">
    <!-- Generator: Sketch 50.2 (55047) - http://www.bohemiancoding.com/sketch -->
    <title>Group</title>
    <desc>Created with Sketch.</desc>
    <defs>
        <filter x="-166.9%" y="-574.9%" width="433.8%" height="1249.7%" filterUnits="objectBoundingBox" id="filter-1">
            <feGaussianBlur stdDeviation="6.32352941" in="SourceGraphic"></feGaussianBlur>
        </filter>
        <linearGradient x1="0%" y1="0%" x2="100%" y2="100%" id="linearGradient-2">
            <stop stop-color="#CB75ED" offset="0%"></stop>
            <stop stop-color="#9E53E1" offset="100%"></stop>
        </linearGradient>
    </defs>
    <g id="BUGS-14/6" stroke="none" stroke-width="1" fill="none" fill-rule="evenodd">
        <g id="Buy-Coin-Copy" transform="translate(-174.000000, -218.000000)">
            <g id="Group" transform="translate(182.000000, 218.000000)">
                <g id="ethereum-copy">
                    <rect id="Rectangle-8-Copy" fill="#1D63FA" filter="url(#filter-1)" x="5.5" y="18.7" width="11.3666667" height="3.3"></rect>
                    <rect id="Rectangle-3" stroke="#FFFFFF" stroke-width="3" fill="url(#linearGradient-2)" x="1.5" y="1.5" width="19" height="19" rx="9.5"></rect>
                </g>
                <g id="icons8-ethereum" transform="translate(7.000000, 5.000000)" fill="#FFFFFF" fill-rule="nonzero">
                    <polygon id="Shape" points="0 6.28571429 4 0 8 6.28571429 4 8.57142857"></polygon>
                    <polygon id="Shape" points="4 0 8 6.28571429 4 8.57142857"></polygon>
                    <polygon id="Shape" points="0 7.14285714 4 9.42857143 8 7.14285714 4 12.5714286"></polygon>
                    <polygon id="Shape" points="4 9.42857143 8 7.14285714 4 12.5714286"></polygon>
                    <polygon id="Shape" points="0 6.28571429 4 4.57142857 8 6.28571429 4 8.57142857"></polygon>
                    <polygon id="Shape" points="4 4.57142857 8 6.28571429 4 8.57142857"></polygon>
                </g>
            </g>
        </g>
    </g>
</svg>