<?xml version="1.0" encoding="UTF-8"?>
<svg width="228px" height="116px" viewBox="0 0 228 116" version="1.1" xmlns="http://www.w3.org/2000/svg" xmlns:xlink="http://www.w3.org/1999/xlink">
    <!-- Generator: Sketch 52.4 (67378) - http://www.bohemiancoding.com/sketch -->
    <title>Group 26</title>
    <desc>Created with Sketch.</desc>
    <defs>
        <polygon id="path-1" points="0 0 212 0 212 97 0 97"></polygon>
        <filter x="-6.8%" y="-9.8%" width="113.7%" height="129.9%" filterUnits="objectBoundingBox" id="filter-2">
            <feOffset dx="0" dy="5" in="SourceAlpha" result="shadowOffsetOuter1"></feOffset>
            <feGaussianBlur stdDeviation="4" in="shadowOffsetOuter1" result="shadowBlurOuter1"></feGaussianBlur>
            <feColorMatrix values="0 0 0 0 0   0 0 0 0 0   0 0 0 0 0  0 0 0 0.1 0" type="matrix" in="shadowBlurOuter1"></feColorMatrix>
        </filter>
    </defs>
    <g id="LANDING-PAGE---PEX-EXTENSION" stroke="none" stroke-width="1" fill="none" fill-rule="evenodd">
        <g id="Artboard-Copy" transform="translate(-593.000000, -967.000000)">
            <g id="Group-24" transform="translate(199.000000, 965.000000)">
                <g id="Group-23" transform="translate(402.000000, 5.000000)">
                    <g id="Group-26">
                        <g id="Group-20">
                            <g id="Rectangle">
                                <use fill="black" fill-opacity="1" filter="url(#filter-2)" xlink:href="#path-1"></use>
                                <use fill="#FFFFFF" fill-rule="evenodd" xlink:href="#path-1"></use>
                            </g>
                            <rect id="Rectangle" fill="#533B24" x="15" y="63" width="53" height="19" rx="3"></rect>
                            <rect id="Rectangle-Copy-6" fill="#999591" x="71" y="63" width="53" height="19" rx="3"></rect>
                            <text id="Yes" font-family="MuseoSans-900, Museo Sans" font-size="12" font-weight="bold" fill="#FFFFFF">
                                <tspan x="33" y="76">Yes</tspan>
                            </text>
                            <text id="No" font-family="MuseoSans-900, Museo Sans" font-size="12" font-weight="bold" fill="#FFFFFF">
                                <tspan x="89" y="76">No</tspan>
                            </text>
                            <rect id="Rectangle" fill="#F2F2F2" x="146" y="19" width="51" height="45" rx="4"></rect>
                            <text id="Will-BTC-go-down-on" font-family="MuseoSans-700, Museo Sans" font-size="14" font-weight="500" line-spacing="19" fill="#28221C">
                                <tspan x="15" y="26.0178739">Will BTC go down</tspan>
                                <tspan x="15" y="45.0178739">on this Sat?</tspan>
                            </text>
                        </g>
                        <g id="Group-18" transform="translate(137.000000, 48.017874)">
                            <g id="Group-4" transform="translate(15.000000, 35.000000)" fill="#FFE6CE">
                                <circle id="Oval-Copy-2" cx="15" cy="15" r="15"></circle>
                            </g>
                            <g id="Group-17" fill="#FE8F25" stroke="#EEBC8D">
                                <rect id="Rectangle" transform="translate(18.079446, 4.380296) rotate(21.000000) translate(-18.079446, -4.380296) " x="18.079446" y="0.380295894" width="1" height="8" rx="0.5"></rect>
                                <rect id="Rectangle-Copy-5" transform="translate(23.079446, 9.380296) rotate(46.000000) translate(-23.079446, -9.380296) " x="23.079446" y="5.38029589" width="1" height="8" rx="0.5"></rect>
                                <rect id="Rectangle-Copy-2" transform="translate(9.422067, 5.263759) rotate(-26.000000) translate(-9.422067, -5.263759) " x="9.42206718" y="1.26375878" width="1" height="8" rx="0.5"></rect>
                                <rect id="Rectangle-Copy-3" transform="translate(4.399627, 10.008937) rotate(-70.000000) translate(-4.399627, -10.008937) " x="4.39962687" y="6.00893696" width="1" height="8" rx="0.5"></rect>
                                <rect id="Rectangle-Copy-4" transform="translate(4.522815, 17.197799) rotate(-99.000000) translate(-4.522815, -17.197799) " x="4.52281477" y="13.1977993" width="1" height="8" rx="0.5"></rect>
                            </g>
                            <path d="M16.6249747,16.0000834 C17.5103888,16.0000834 18.291637,16.3516451 18.9687191,17.0547684 C19.6458012,17.7578918 19.9843417,18.5782023 19.9843417,19.5157001 L19.9843417,27.3281814 C20.7135062,26.6510993 21.6249627,26.3255801 22.7187101,26.3516213 C23.8124575,26.3776625 24.7499553,26.8594326 25.5312034,27.7969303 C26.4166176,27.2760978 27.3541154,27.1719318 28.3436967,27.4844311 C29.3332781,27.7969303 30.0364014,28.3177628 30.4530667,29.0469273 C32.2759786,28.7344281 33.6561841,29.0859897 34.5936818,30.1016123 C35.5311796,31.1172349 35.9999285,32.66671 35.9999285,34.7500387 L35.9999285,36.0000358 C35.9999285,37.2500328 35.8176376,38.3958638 35.4530548,39.4375276 C35.2968052,40.0625261 34.9322223,40.8958578 34.3593074,41.9375216 C33.9947245,42.6666861 33.7343089,43.2396022 33.5780592,43.6562675 C33.3176436,44.3333496 33.1093104,45.0104305 32.9530607,45.6875127 C32.9009771,46.1041779 32.7056651,46.4687608 32.3671246,46.7812601 C32.0285842,47.0937593 31.6249389,47.2500089 31.15619,47.2500089 L17.7187221,47.2500089 C16.9895575,47.2500089 16.3124754,47.0546969 15.6874769,46.6640728 C15.0624784,46.2734488 14.5937295,45.7395963 14.2812303,45.0625142 C13.6041481,43.4479343 12.7447752,41.8593968 11.7031114,40.2969005 C10.4010308,38.2656554 9.25520097,37.0416995 8.2656196,36.6250343 C6.75520693,36.0000358 6,34.958372 6,33.5000417 C6,32.6146276 6.26041565,31.8463994 6.78124814,31.1953597 C7.30208063,30.54432 7.96614154,30.1016123 8.77343089,29.8672379 C9.58072023,29.6328634 10.4010308,29.6979671 11.2343625,30.0625499 C11.859361,30.3229656 12.5104007,30.6875484 13.1874829,31.1562973 L13.1874829,19.5157001 C13.1874829,18.5782023 13.5260233,17.7578918 14.2031054,17.0547684 C14.8801876,16.3516451 15.6874769,16.0000834 16.6249747,16.0000834 Z M16.6249747,48.500006 L31.6249389,48.500006 C32.1457714,48.500006 32.5884779,48.6822968 32.9530607,49.0468797 C33.3176436,49.4114625 33.4999344,49.854169 33.4999344,50.3750015 L33.4999344,54.1249925 C33.4999344,54.645825 33.3176436,55.0885315 32.9530607,55.4531144 C32.5884779,55.8176972 32.1457714,55.9999881 31.6249389,55.9999881 L16.6249747,55.9999881 C16.1041422,55.9999881 15.6614357,55.8176972 15.2968528,55.4531144 C14.93227,55.0885315 14.7499791,54.645825 14.7499791,54.1249925 L14.7499791,50.3750015 C14.7499791,49.854169 14.93227,49.4114625 15.2968528,49.0468797 C15.6614357,48.6822968 16.1041422,48.500006 16.6249747,48.500006 Z M29.7499434,50.6875007 C29.3332781,50.6875007 28.9686952,50.8437504 28.656196,51.1562496 C28.3436967,51.4687489 28.1874471,51.8333317 28.1874471,52.249997 C28.1874471,52.6666623 28.3436967,53.0312452 28.656196,53.3437444 C28.9686952,53.6562437 29.3332781,53.8124933 29.7499434,53.8124933 C30.1666087,53.8124933 30.5311915,53.6562437 30.8436908,53.3437444 C31.15619,53.0312452 31.3124397,52.6666623 31.3124397,52.249997 C31.3124397,51.8333317 31.15619,51.4687489 30.8436908,51.1562496 C30.5311915,50.8437504 30.1666087,50.6875007 29.7499434,50.6875007 Z" id="" fill="#FE8F25"></path>
                        </g>
                    </g>
                </g>
            </g>
        </g>
    </g>
</svg>