<?xml version="1.0" encoding="UTF-8"?>
<svg width="150px" height="60px" viewBox="0 0 150 60" version="1.1" xmlns="http://www.w3.org/2000/svg" xmlns:xlink="http://www.w3.org/1999/xlink">
    <!-- Generator: Sketch 52.5 (67469) - http://www.bohemiancoding.com/sketch -->
    <title>Group 27</title>
    <desc>Created with Sketch.</desc>
    <g id="LANDING-PAGE---PEX-EXTENSION" stroke="none" stroke-width="1" fill="none" fill-rule="evenodd">
        <g id="Home" transform="translate(-225.000000, -2154.000000)">
            <g id="Group-27" transform="translate(225.000000, 2155.000000)">
                <g id="Group-19">
                    <g id="Group-13">
                        <path d="M29,6.0835794 C37.4226953,-3.61814587 73.0636627,-1.28796096 80,10.0307185" id="Path-5" stroke="#573311" stroke-width="2" opacity="0.488304501" stroke-dasharray="2"></path>
                        <circle id="Oval-Copy" fill="#FFDEBF" cx="123.5" cy="32.5" r="26.5"></circle>
                        <path d="M124.015539,16.0000596 C125.109287,16.0000596 126.046784,16.3646425 126.828032,17.093807 C127.609281,17.8229715 127.999905,18.7083869 127.999905,19.7500507 L127.999905,39.750003 C127.999905,40.7916668 127.609281,41.6770821 126.828032,42.4062466 C126.046784,43.1354112 125.109287,43.499994 124.015539,43.499994 L92.9999881,43.499994 C91.5937414,43.499994 90.408848,43.018224 89.4453091,42.054685 C88.4817701,41.091146 88,39.9062526 88,38.500006 L88,13.5000656 C88,12.0938189 88.4817701,10.9089255 89.4453091,9.94538654 C90.408848,8.98184757 91.5937414,8.50007749 92.9999881,8.50007749 L121.74992,8.50007749 C122.791583,8.50007749 123.676999,8.86466035 124.406163,9.59382488 C125.135328,10.3229894 125.499911,11.2084048 125.499911,12.2500685 C125.499911,12.6146514 125.382723,12.9141295 125.148349,13.1485039 C124.913974,13.3828783 124.614496,13.5000656 124.249914,13.5000656 L94.2499851,13.5000656 C93.8854022,13.5000656 93.5859242,13.6172528 93.3515497,13.8516272 C93.1171753,14.0860017 92.9999881,14.3854797 92.9999881,14.7500626 C92.9999881,15.1146454 93.1171753,15.4141235 93.3515497,15.6484979 C93.5859242,15.8828724 93.8854022,16.0000596 94.2499851,16.0000596 L124.015539,16.0000596 Z M120.499923,32.2500209 C121.177005,32.2500209 121.762941,32.0026252 122.257731,31.5078351 C122.752521,31.013045 122.999917,30.4271089 122.999917,29.7500268 C122.999917,29.0729447 122.752521,28.4870086 122.257731,27.9922185 C121.762941,27.4974284 121.177005,27.2500328 120.499923,27.2500328 C119.82284,27.2500328 119.236904,27.4974284 118.742114,27.9922185 C118.247324,28.4870086 117.999928,29.0729447 117.999928,29.7500268 C117.999928,30.4271089 118.247324,31.013045 118.742114,31.5078351 C119.236904,32.0026252 119.82284,32.2500209 120.499923,32.2500209 Z" id="" fill="#FE8F25"></path>
                        <circle id="Oval" fill="#FFE6CE" cx="16" cy="22" r="16"></circle>
                        <path d="M22.4999739,26.5742341 L12.1093737,20.2168274 L22.4999739,2.37507302 L32.8905741,20.2168274 L22.4999739,26.5742341 Z M22.4999739,28.5566512 L32.8905741,22.2676037 L22.4999739,37.3749896 L12.1093737,22.2676037 L22.4999739,28.5566512 Z" id="" fill="#F09640"></path>
                        <path d="M81.7272727,2 L83,10.8 L76,13" id="Path-6" fill="#845529"></path>
                    </g>
                </g>
            </g>
        </g>
    </g>
</svg>