<?xml version="1.0" encoding="UTF-8"?>
<svg width="101px" height="31px" viewBox="0 0 101 31" version="1.1" xmlns="http://www.w3.org/2000/svg" xmlns:xlink="http://www.w3.org/1999/xlink">
    <!-- Generator: Sketch 52.1 (67048) - http://www.bohemiancoding.com/sketch -->
    <title>Group 27</title>
    <desc>Created with Sketch.</desc>
    <defs>
        <polygon id="path-1" points="0.0210130814 0.0403593023 15.4528605 0.0403593023 15.4528605 15.061964 0.0210130814 15.061964"></polygon>
        <polygon id="path-3" points="0.00823404255 0.0197454545 18.0739787 0.0197454545 18.0739787 18.0909091 0.00823404255 18.0909091"></polygon>
        <polygon id="path-5" points="2.73556231e-05 0.0547818182 29.9450152 0.0547818182 29.9450152 29.7631455 2.73556231e-05 29.7631455"></polygon>
        <polygon id="path-7" points="0 0.0687363636 27.0706413 0.0687363636 27.0706413 25.1818182 0 25.1818182"></polygon>
    </defs>
    <g id="Page-1" stroke="none" stroke-width="1" fill="none" fill-rule="evenodd">
        <g id="Artboard" transform="translate(-100.000000, -46.000000)">
            <g id="Group-27" transform="translate(100.000000, 46.000000)">
                <g id="Group-16" transform="translate(40.000000, 2.000000)">
                    <path d="M12.3467369,7.5379686 C11.7984462,6.9425093 11.1465974,6.48234942 10.4094549,6.17043372 C9.67408576,5.85922733 8.87612064,5.70123023 8.03790262,5.70123023 C7.13301017,5.70123023 6.29496948,5.88369826 5.54736483,6.24313721 C4.91342587,6.54813721 4.27682703,6.98790465 3.65033576,7.55304128 L3.47974855,6.08123895 L3.4579375,5.89327384 L3.26855378,5.89327384 L0.212524709,5.89327384 L8.86627907e-05,5.89327384 L8.86627907e-05,6.10588721 L8.86627907e-05,19.9750529 L8.86627907e-05,20.1876663 L0.212524709,20.1876663 L3.6111468,20.1876663 L3.82376017,20.1876663 L3.82376017,19.9750529 L3.82376017,12.9033087 C3.82376017,12.4004134 3.90497529,11.9195064 4.06510029,11.4745965 C4.22380669,11.0316372 4.45220203,10.639925 4.74354797,10.3100994 C5.03365262,9.98169244 5.3863532,9.71765465 5.79225145,9.52561105 C6.19548983,9.33427674 6.65121657,9.23745698 7.1470189,9.23745698 C7.66179506,9.23745698 8.11628052,9.32558779 8.49788517,9.49954419 C8.87842587,9.6729686 9.20417297,9.91679128 9.4657282,10.2248058 C9.72887936,10.5347709 9.92943459,10.9064453 10.0620741,11.3291895 C10.1966642,11.7590267 10.2645799,12.2331953 10.2645799,12.7389279 L10.2645799,19.9750529 L10.2645799,20.1876663 L10.4773706,20.1876663 L13.9034782,20.1876663 L14.1160916,20.1876663 L14.1160916,19.9750529 L14.1160916,12.7114424 C14.1160916,11.6047535 13.9573852,10.6051692 13.6444055,9.74035233 C13.3294753,8.87252093 12.893077,8.13147733 12.3467369,7.5379686" id="Fill-1" fill="#FFFFFF"></path>
                    <polygon id="Fill-3" fill="#FFFFFF" points="16.8500974 5.86575291 16.637484 5.86575291 16.637484 6.07836628 16.637484 19.9748401 16.637484 20.1876308 16.8500974 20.1876308 20.2760276 20.1876308 20.488641 20.1876308 20.488641 19.9748401 20.488641 6.07836628 20.488641 5.86575291 20.2760276 5.86575291"></polygon>
                    <path d="M19.6233099,0.268825581 C19.2979174,0.108700581 18.9386558,0.0274854651 18.5561645,0.0274854651 C18.1734959,0.0274854651 17.8144116,0.108700581 17.4893738,0.268648256 C17.1597256,0.431078488 16.8811471,0.678802326 16.6601994,1.0050814 C16.4358826,1.33632558 16.3222169,1.75215407 16.3222169,2.2410407 C16.3222169,2.73063663 16.4362372,3.14469186 16.661086,3.47150291 C16.8811471,3.79193023 17.1590163,4.03894477 17.4870686,4.20545349 C17.8122837,4.3705436 18.1722547,4.4544186 18.5561645,4.4544186 C18.9402517,4.4544186 19.299868,4.3705436 19.6256151,4.20545349 C19.9533128,4.03876744 20.231182,3.79193023 20.4514203,3.47150291 C20.6760919,3.14433721 20.7902895,2.73028198 20.7902895,2.2410407 C20.7902895,1.75250872 20.6764465,1.33650291 20.4519523,1.0050814 C20.231182,0.678802326 19.9524262,0.431078488 19.6233099,0.268825581" id="Fill-5" fill="#FFFFFF"></path>
                    <path d="M37.1810605,20.1876485 L37.1810605,19.9750352 L37.1810605,12.7114247 C37.1810605,11.6047358 37.0223541,10.6051515 36.7091971,9.74033459 C36.3946215,8.8725032 35.9582233,8.13145959 35.4117058,7.53795087 C34.8634151,6.94249157 34.2115663,6.48233169 33.4742465,6.17041599 C32.7388773,5.85903227 31.9410895,5.7012125 31.1028715,5.7012125 C30.1978017,5.7012125 29.3599384,5.88368052 28.6121564,6.24311948 C27.9783948,6.5482968 27.3417959,6.98788692 26.7151273,7.55302355 L26.5447174,6.08122122 L26.5229064,5.8932561 L26.3337,5.8932561 L23.2773163,5.8932561 L23.0648802,5.8932561 L23.0648802,6.10586948 L23.0648802,19.9750352 L23.0648802,20.1876485 L23.2773163,20.1876485 L26.6761157,20.1876485 L26.8887291,20.1876485 L26.8887291,19.9750352 L26.8887291,12.903291 C26.8887291,12.4003956 26.9699442,11.919666 27.1300692,11.4745788 C27.2887756,11.0316195 27.5171709,10.6399073 27.8085169,10.3100817 C28.0984442,9.98167471 28.4511448,9.71763692 28.8572203,9.52559331 C29.2604587,9.33425901 29.7161855,9.23761657 30.2119878,9.23761657 C30.726764,9.23761657 31.1810721,9.32557006 31.5628541,9.49952645 C31.9432174,9.67295087 32.2689645,9.91677355 32.5306971,10.2247881 C32.7936709,10.5347532 32.9944035,10.9064276 33.127043,11.3291718 C33.2614558,11.7588317 33.3297262,12.2331776 33.3297262,12.7389102 L33.3297262,19.9750352 L33.3297262,20.1876485 L33.5421622,20.1876485 L36.9684471,20.1876485 L37.1810605,20.1876485 Z" id="Fill-7" fill="#FFFFFF"></path>
                    <path d="M39.8876163,5.86575291 L39.6750029,5.86575291 L39.6750029,6.07836628 L39.6750029,22.9216366 C39.6750029,23.293311 39.657093,23.6279244 39.6218052,23.9166105 C39.5882907,24.1873866 39.5240988,24.4172006 39.4310029,24.5994913 C39.3426948,24.7723837 39.2279651,24.9023634 39.0806076,24.9968779 C38.9359099,25.0897965 38.7440436,25.140689 38.5101512,25.1484913 C38.4658198,25.1507965 38.4257442,25.1518605 38.385314,25.1518605 C37.9593779,25.1518605 37.475811,25.0284419 36.9480901,24.7840872 L36.7555145,24.6952471 L36.6659651,24.8878227 L35.4324884,27.5464651 L35.3548198,27.7140378 L35.509625,27.8142267 C36.0180174,28.1435203 36.5462703,28.3898256 37.0800203,28.5458721 C37.613593,28.701564 38.1523081,28.7804738 38.6814477,28.7804738 C39.4850872,28.7804738 40.1974041,28.6402093 40.7987151,28.3634041 C41.4030407,28.0851802 41.9137384,27.6814099 42.3166221,27.1636192 C42.7159593,26.6500843 43.0167035,26.0253663 43.2106977,25.3066657 C43.4018547,24.597186 43.4986744,23.7947878 43.4986744,22.9216366 L43.4986744,6.07836628 L43.4986744,5.86575291 L43.2862384,5.86575291 L39.8876163,5.86575291 Z" id="Fill-9" fill="#FFFFFF"></path>
                    <path d="M42.6608288,0.241375581 C42.3354363,0.0812505814 41.9761747,3.54651163e-05 41.5936834,3.54651163e-05 C41.2110148,3.54651163e-05 40.8519305,0.0812505814 40.5268927,0.241198256 C40.1972445,0.403628488 39.918666,0.651352326 39.6977183,0.977631395 C39.4734015,1.30887558 39.3597358,1.72470407 39.3597358,2.2135907 C39.3597358,2.70318663 39.4737561,3.11724186 39.6986049,3.44405291 C39.918666,3.76448023 40.1965352,4.01149477 40.5245875,4.17800349 C40.8498026,4.34327093 41.2097735,4.4269686 41.5936834,4.4269686 C41.9777706,4.4269686 42.3373869,4.34327093 42.663134,4.17800349 C42.9908317,4.01149477 43.2685235,3.76465756 43.4889392,3.44405291 C43.7136108,3.11688721 43.8278084,2.7030093 43.8278084,2.2135907 C43.8278084,1.72523605 43.7139654,1.30905291 43.4894712,0.977631395 C43.2687009,0.651352326 42.9899451,0.403628488 42.6608288,0.241375581" id="Fill-11" fill="#FFFFFF"></path>
                    <g id="Group-15" transform="translate(45.218023, 5.550823)">
                        <mask id="mask-2" fill="white">
                            <use xlink:href="#path-1"></use>
                        </mask>
                        <g id="Clip-14"></g>
                        <path d="M11.5741294,7.50328372 C11.5741294,7.99926337 11.4945102,8.49329244 11.338109,8.97224884 C11.1831265,9.44517616 10.9432049,9.87270814 10.6252602,10.2426093 C10.3074927,10.6116238 9.90443169,10.9141413 9.42707122,11.1418273 C8.95130669,11.369336 8.38492878,11.4845977 7.74371948,11.4845977 C7.20660029,11.4845977 6.69519331,11.392211 6.22368459,11.2106297 C5.75501308,11.0302895 5.3413125,10.7667837 4.99393169,10.4279145 C4.64655087,10.0892227 4.36761773,9.66825174 4.16475727,9.17652791 C3.96171948,8.68409477 3.85887064,8.11647558 3.85887064,7.48962965 C3.85887064,6.86313837 3.96154215,6.29800174 4.16457994,5.81000174 C4.36726308,5.32271105 4.64637355,4.90386802 4.99393169,4.56517616 C5.34113517,4.22666163 5.75412645,3.96563837 6.22208866,3.78937674 C6.69412936,3.61222849 7.20606831,3.52214709 7.74371948,3.52214709 C8.38457413,3.52214709 8.95077471,3.63740872 9.42707122,3.86474012 C9.90460901,4.09313547 10.3080247,4.39565291 10.6252602,4.76395814 C10.9432049,5.13368198 11.1831265,5.56121395 11.338109,6.03449593 C11.4945102,6.513275 11.5741294,7.0074814 11.5741294,7.50328372 Z M15.2403358,0.369652907 L11.9651323,0.369652907 L11.765641,0.369652907 L11.7528735,0.568612209 L11.6693532,1.86610349 C11.5377776,1.70314128 11.3907747,1.54851337 11.2299404,1.40417035 C10.9063212,1.1140657 10.5401439,0.865632558 10.1413387,0.66649593 C9.74501599,0.46824593 9.31234157,0.312908721 8.85519622,0.20420814 C8.39698692,0.0958622093 7.92157703,0.0407139535 7.44226599,0.0407139535 L7.35608576,0.0403593023 C6.35508285,0.0403593023 5.40621366,0.194455233 4.53572238,0.498391279 C3.6340218,0.812789535 2.83871657,1.28908605 2.17144041,1.91415872 C1.50345494,2.53976337 0.972010174,3.33045814 0.591824128,4.26443198 C0.213056686,5.19503663 0.0210130814,6.27991453 0.0210130814,7.48962965 C0.0210130814,8.72541163 0.205609012,9.82802209 0.569835756,10.7666064 C0.936013081,11.7094465 1.45309448,12.5118448 2.10653924,13.1507488 C2.76069331,13.7910715 3.54748692,14.2778302 4.44546366,14.5970163 C5.3122311,14.9055628 6.26340552,15.061964 7.27292006,15.061964 L7.3619375,15.0616093 C7.76109738,15.0520337 8.19253052,14.9949349 8.64754797,14.8919087 C9.10540262,14.7879959 9.55456831,14.6278709 9.98298692,14.4161442 C10.4128241,14.2035308 10.813048,13.9373651 11.1723096,13.6252721 C11.3659491,13.4573448 11.5377776,13.2729262 11.6867311,13.0737895 L11.8081991,14.4429203 L11.8253997,14.6369145 L12.0199259,14.6369145 L15.2403358,14.6369145 L15.4529491,14.6369145 L15.4529491,14.4243012 L15.4529491,0.582266279 L15.4529491,0.369652907 L15.2403358,0.369652907 Z" id="Fill-13" fill="#FFFFFF" mask="url(#mask-2)"></path>
                    </g>
                </g>
                <g id="Group-14">
                    <g id="Group-3" transform="translate(1.823708, 11.854364)">
                        <mask id="mask-4" fill="white">
                            <use xlink:href="#path-3"></use>
                        </mask>
                        <g id="Clip-2"></g>
                        <path d="M13.1607264,4.20210909 C12.3539179,1.71456364 10.756076,0.0197454545 8.91586322,0.0197454545 C7.07555927,0.0197454545 5.47780851,1.71456364 4.671,4.20210909 L4.66507295,4.20210909 L0.00823404255,17.4799273 C0.616714286,17.8659273 1.33680547,18.0909273 2.10741337,18.0909273 L18.0739787,18.0909273 L13.1665623,4.20210909 L13.1607264,4.20210909 Z" id="Fill-1" fill="#231F20" mask="url(#mask-4)"></path>
                    </g>
                    <g id="Group-6" transform="translate(0.000000, 0.036182)">
                        <mask id="mask-6" fill="white">
                            <use xlink:href="#path-5"></use>
                        </mask>
                        <g id="Clip-5"></g>
                        <path d="M26.0139483,0.0547818182 L3.93112158,0.0547818182 C1.76902432,0.0547818182 2.73556231e-05,1.81841818 2.73556231e-05,3.97396364 L2.73556231e-05,18.3803273 L4.56704863,9.14378182 L4.57562006,9.14378182 C5.74717021,6.55787273 8.06738298,4.79605455 10.7395714,4.79605455 C13.4117599,4.79605455 15.7319726,6.55787273 16.9034316,9.14378182 L16.912003,9.14378182 L27.0706049,29.7631455 C28.723614,29.2998727 29.9450426,27.7806909 29.9450426,25.9898727 L29.9450426,3.97396364 C29.9450426,1.81841818 28.1760456,0.0547818182 26.0139483,0.0547818182" id="Fill-4" fill="#231F20" mask="url(#mask-6)"></path>
                    </g>
                    <g id="Group-9" transform="translate(0.000000, 4.763455)">
                        <mask id="mask-8" fill="white">
                            <use xlink:href="#path-7"></use>
                        </mask>
                        <g id="Clip-8"></g>
                        <path d="M16.9034681,4.41655455 C15.7319179,1.83064545 13.4117964,0.0687363636 10.7395167,0.0687363636 C8.06732827,0.0687363636 5.74720669,1.83064545 4.57565653,4.41655455 L4.56708511,4.41655455 L-2.73556231e-05,13.6531 L-2.73556231e-05,21.2626455 C-2.73556231e-05,22.6498273 0.733285714,23.8739182 1.83188754,24.5708273 L6.48881763,11.2930091 L6.4946535,11.2930091 C7.30146201,8.80546364 8.89930395,7.11064545 10.7395167,7.11064545 C12.5798207,7.11064545 14.1776626,8.80546364 14.9844711,11.2930091 L14.990307,11.2930091 L19.8976322,25.1818273 L26.0139848,25.1818273 C26.3798207,25.1818273 26.7339848,25.1302818 27.0706413,25.0358273 L16.9120395,4.41655455 L16.9034681,4.41655455 Z" id="Fill-7" fill="#FEFEFE" mask="url(#mask-8)"></path>
                    </g>
                    <polygon id="Fill-10" fill="#FEFEFE" points="22.4617204 17.7564 24.8188632 22.5904909 25.474304 21.0327636 23.1170699 16.1986727"></polygon>
                    <path d="M28.9484407,12.0499909 C28.8080152,10.9487182 27.7987751,10.1693545 26.6940638,10.3093545 C25.9914802,10.3984455 25.4207508,10.8385364 25.1336079,11.4299909 L25.1252188,11.4258091 L23.7254316,14.7529 L26.0825745,19.5869909 L28.758228,13.2274455 L28.7425441,13.2196273 C28.9218146,12.8713545 29.001693,12.4676273 28.9484407,12.0499909" id="Fill-12" fill="#FEFEFE"></path>
                </g>
            </g>
        </g>
    </g>
</svg>