<?xml version="1.0" encoding="UTF-8"?>
<svg width="82px" height="108px" viewBox="0 0 82 108" version="1.1" xmlns="http://www.w3.org/2000/svg" xmlns:xlink="http://www.w3.org/1999/xlink">
    <!-- Generator: Sketch 52.1 (67048) - http://www.bohemiancoding.com/sketch -->
    <title>Group 22</title>
    <desc>Created with Sketch.</desc>
    <g id="Page-1" stroke="none" stroke-width="1" fill="none" fill-rule="evenodd">
        <g id="Artboard" transform="translate(-1001.000000, -965.000000)">
            <g id="Group-24" transform="translate(203.000000, 965.000000)">
                <g id="Group-22" transform="translate(798.000000, 0.000000)">
                    <circle id="Oval" fill="#FFDEBF" cx="59" cy="88" r="20"></circle>
                    <g id="icons8-crystal_ball_filled" transform="translate(18.000000, 35.000000)" fill="#FE8F25" fill-rule="nonzero">
                        <path d="M23,0 C11.5213911,0 2.19047619,9.3309149 2.19047619,20.8095238 C2.19047619,24.1850816 2.98623567,27.3681173 4.41517857,30.1875 C4.40662257,30.2431173 4.38095238,30.2987357 4.38095238,30.358631 L4.38095238,36.7589286 C4.38095238,41.5548732 22.2384678,41.6190476 23,41.6190476 C23.7615333,41.6190476 41.6190476,41.5548732 41.6190476,36.7589286 L41.6190476,30.358631 C41.6190476,30.2987357 41.5933785,30.2431173 41.5848214,30.1875 C43.0137654,27.3681173 43.8095238,24.1850816 43.8095238,20.8095238 C43.8095238,9.3309149 34.4786089,0 23,0 Z M23,2.19047619 C33.2978053,2.19047619 41.6190476,10.5117185 41.6190476,20.8095238 C41.6190476,24.8738845 40.3013393,28.6002601 38.09375,31.6592262 C36.2155875,32.7159601 31.9629839,33.952381 23,33.952381 C14.0370161,33.952381 9.78441248,32.7159601 7.90625,31.6592262 C5.70293871,28.6002601 4.38095238,24.8738845 4.38095238,20.8095238 C4.38095238,10.5117185 12.7021947,2.19047619 23,2.19047619 Z M2.29315476,37.6488095 C2.23325948,37.8755578 2.19047619,38.098028 2.19047619,38.3333333 L2.19047619,42.7142857 C2.19047619,47.0353428 15.269159,48.1904762 23,48.1904762 C30.730841,48.1904762 43.8095238,47.0353428 43.8095238,42.7142857 L43.8095238,38.3333333 C43.8095238,38.098028 43.7710196,37.8755578 43.7068452,37.6488095 C42.5174857,42.9880952 30.3843011,43.8095238 23,43.8095238 C15.6157,43.8095238 3.48679343,42.9880952 2.29315476,37.6488095 Z M0.068452381,43.3988095 C0.0427832857,43.5271583 0,43.668341 0,43.8095238 L0,48.1904762 C0,52.7040553 11.9235494,54.7619048 23,54.7619048 C34.0764506,54.7619048 46,52.7040553 46,48.1904762 L46,43.8095238 C46,43.668341 45.9572178,43.5271583 45.9315476,43.3988095 C44.9561012,49.4397321 31.2784601,50.3809524 23,50.3809524 C14.7215399,50.3809524 1.04817681,49.4397321 0.068452381,43.3988095 Z" id="Shape"></path>
                    </g>
                    <g id="Group-21" fill="#FE8F25">
                        <polygon id="Star" points="41.5 14.25 35.9160401 17.1856614 36.9824815 10.9678307 32.4649631 6.56433855 38.7080201 5.65716928 41.5 0 44.2919799 5.65716928 50.5350369 6.56433855 46.0175185 10.9678307 47.0839599 17.1856614"></polygon>
                        <polygon id="Star-Copy" points="14.5 23.75 11.8549664 25.1405765 12.3601228 22.1952882 10.2202457 20.1094235 13.1774832 19.6797118 14.5 17 15.8225168 19.6797118 18.7797543 20.1094235 16.6398772 22.1952882 17.1450336 25.1405765"></polygon>
                        <polygon id="Star-Copy-3" points="2.5 41.75 1.03053687 42.5225425 1.31117935 40.8862712 0.122358709 39.7274575 1.76526843 39.4887288 2.5 38 3.23473157 39.4887288 4.87764129 39.7274575 3.68882065 40.8862712 3.96946313 42.5225425"></polygon>
                        <polygon id="Star-Copy-4" points="79.5 41.75 78.0305369 42.5225425 78.3111794 40.8862712 77.1223587 39.7274575 78.7652684 39.4887288 79.5 38 80.2347316 39.4887288 81.8776413 39.7274575 80.6888206 40.8862712 80.9694631 42.5225425"></polygon>
                        <polygon id="Star-Copy-2" points="67.5 23.75 64.8549664 25.1405765 65.3601228 22.1952882 63.2202457 20.1094235 66.1774832 19.6797118 67.5 17 68.8225168 19.6797118 71.7797543 20.1094235 69.6398772 22.1952882 70.1450336 25.1405765"></polygon>
                    </g>
                </g>
            </g>
        </g>
    </g>
</svg>