<?xml version="1.0" encoding="UTF-8"?>
<svg width="64px" height="64px" viewBox="0 0 64 64" version="1.1" xmlns="http://www.w3.org/2000/svg" xmlns:xlink="http://www.w3.org/1999/xlink">
    <!-- Generator: Sketch 52.1 (67048) - http://www.bohemiancoding.com/sketch -->
    <title>Group 28</title>
    <desc>Created with Sketch.</desc>
    <g id="Page-1" stroke="none" stroke-width="1" fill="none" fill-rule="evenodd">
        <g id="Home" transform="translate(-696.000000, -1557.000000)" fill="#0AAAFF">
            <g id="Group-28" transform="translate(696.000000, 1557.000000)">
                <rect id="Rectangle-Copy-8" opacity="0.123325893" x="0" y="0" width="64" height="64" rx="12"></rect>
                <g id="connectdevelop-brands-copy-2" transform="translate(13.000000, 15.000000)" fill-rule="nonzero" stroke="#0AAAFF">
                    <path d="M38.1619523,15.766245 L34.6009607,9.68498609 C34.6771016,9.5348921 34.7342606,9.36594878 34.7342606,9.17822619 C34.7342606,8.61512849 34.2582199,8.14585706 33.6869143,8.12707779 L29.7450048,1.40767417 C29.7831108,1.29506865 29.8211457,1.18246312 29.8211457,1.0698576 C29.8211457,0.469271438 29.326052,0 28.7356934,0 C28.3929527,0 28.1072998,0.150164057 27.8977879,0.394154374 L20.3188169,0.394154374 C20.128358,0.150234129 19.8427052,7.00718886e-05 19.4999645,7.00718886e-05 C19.1572237,7.00718886e-05 18.8715709,0.150234129 18.681112,0.394224446 L11.1401759,0.394224446 C10.930664,0.150234129 10.6450823,7.00718886e-05 10.3022704,7.00718886e-05 C9.71198286,7.00718886e-05 9.21681812,0.469271438 9.21681812,1.06992767 C9.21681812,1.18253319 9.25492412,1.31391798 9.29303012,1.40774424 L5.31301463,8.22104419 C4.93223898,8.38991744 4.66556806,8.74658336 4.66556806,9.17829626 C4.66556806,9.21578472 4.68462106,9.25334326 4.68462106,9.29090179 L0.895064485,15.7475358 C0.380917833,15.8413621 0,16.273075 0,16.7986142 C0,17.3053741 0.361793738,17.737087 0.856958483,17.8496925 L4.77981498,24.5316076 C4.74170897,24.6442132 4.72265597,24.7380394 4.72265597,24.8694242 C4.72265597,25.3761841 5.08444971,25.807897 5.57961446,25.9017233 L9.25492412,32.189414 C9.21681812,32.3020195 9.17878321,32.4334043 9.17878321,32.5647891 C9.17878321,33.1653753 9.67387686,33.6346467 10.2642355,33.6346467 C10.6069763,33.6346467 10.8926291,33.4844826 11.083088,33.2592716 L18.6811831,33.2592716 C18.8715709,33.4844126 19.1762767,33.6345766 19.4999645,33.6345766 C19.8236522,33.6345766 20.128358,33.4844126 20.3188169,33.2592015 L27.935965,33.2592015 C28.1263528,33.4656333 28.4120057,33.5970181 28.7167115,33.5970181 C29.326052,33.5970181 29.8021638,33.1090375 29.8021638,32.5271605 C29.8021638,32.414555 29.7831819,32.3207287 29.7450759,32.2269025 L33.4203855,25.9016532 C33.9154792,25.8078269 34.277344,25.376114 34.277344,24.8693541 C34.277344,24.7567486 34.258291,24.6441431 34.220185,24.5315376 L38.1239885,17.8496224 C38.6190822,17.7557962 39,17.3240832 39,16.7985441 C38.9998578,16.2917842 38.637993,15.8600713 38.1619523,15.766245 Z M9.9404056,30.4625624 L6.83647268,25.150903 L9.9404056,25.150903 L9.9404056,30.4625624 Z M9.9404056,24.5878053 L6.83647268,24.5878053 C6.81741968,24.5127583 6.77931368,24.4377113 6.74127877,24.3625942 L9.9404056,21.040486 L9.9404056,24.5878053 Z M9.9404056,20.2145487 L6.36036094,23.9496606 C6.26516702,23.9121021 6.16990202,23.8557643 6.07470811,23.8370551 L2.1138878,17.0800929 C2.15192271,16.9862667 2.15192271,16.8923703 2.15192271,16.7985441 C2.15192271,16.7047178 2.15192271,16.6296708 2.13286971,16.5545538 L5.82723237,10.2480838 C6.01769129,10.2293045 6.20807911,10.1729667 6.37948503,10.0603612 L9.94047669,13.7016469 L9.94047669,20.2145487 L9.9404056,20.2145487 Z M9.9404056,13.0446529 L6.68411976,9.72254462 C6.77931368,9.57238056 6.83647268,9.38472805 6.83647268,9.17829626 C6.83647268,9.159517 6.81741968,9.12195846 6.81741968,9.1031792 L9.9404056,7.99576307 L9.9404056,13.0446529 Z M9.9404056,7.39510684 L6.83647268,8.50252297 L9.9404056,3.20957279 L9.9404056,7.39510684 Z M33.1537146,10.1354783 L33.2108736,10.2293045 L30.6971572,21.9413302 L26.1649601,17.230257 L33.1346616,10.116699 L33.1537146,10.1354783 Z M19.7665643,23.761938 L20.5854168,24.5878053 L18.9667648,24.5878053 L19.7665643,23.761938 Z M19.7475113,22.9736293 L13.8252272,16.9862667 L19.4809115,11.0739511 L25.3842136,17.2114777 L19.7475113,22.9736293 Z M20.128358,23.3865629 L25.7650604,17.6244114 L30.5638573,22.6170334 L30.1449756,24.5878053 L21.3280572,24.5878053 L20.128358,23.3865629 Z M28.2025648,1.98962121 C28.2787057,2.02717974 28.3548466,2.06473827 28.4501117,2.08351754 L32.563356,9.14073773 L32.563356,9.17829626 C32.563356,9.38472805 32.6204439,9.57238056 32.7157089,9.72254462 L25.7841134,16.8173233 L19.8808823,10.6797967 L28.2025648,1.98962121 Z M27.5551183,1.83945715 L19.4809115,10.2668631 L15.424755,6.04377047 L27.2503413,1.83945715 L27.5551183,1.83945715 Z M18.7763059,1.83945715 C18.9666937,2.02710967 19.2142405,2.13971519 19.4999645,2.13971519 C19.7856884,2.13971519 20.0331641,2.02710967 20.223623,1.83945715 L25.5556196,1.83945715 L15.0058734,5.5932783 L11.3877227,1.83945715 L18.7763059,1.83945715 Z M10.5117823,2.23361152 L10.5879233,2.08351754 C10.6521703,2.0673339 10.7157109,2.04853858 10.7783822,2.02717974 L14.4155858,5.79985022 L10.5117823,7.18874513 L10.5117823,2.23361152 Z M10.5117823,7.78933129 L14.8344675,6.25027232 L19.0810117,10.6797967 L13.4253274,16.573333 L10.5117823,13.6265999 L10.5117823,7.78933129 Z M10.5117823,14.2834538 L13.1015686,16.9299289 L10.5117823,19.6139625 L10.5117823,14.2834538 Z M10.5117823,20.4398298 L13.5014683,17.3241533 L19.3857175,23.3490744 L18.1669653,24.5878053 L10.5117823,24.5878053 L10.5117823,20.4398298 Z M11.006876,31.7951895 C10.8926291,31.682584 10.7593292,31.607537 10.5879233,31.5511992 L10.5117823,31.4385937 L10.5117823,25.150903 L17.6147127,25.150903 L11.1020699,31.7951895 L11.006876,31.7951895 Z M20.242676,31.7951895 C20.0522171,31.6263163 19.7856884,31.4949315 19.4999645,31.4949315 C19.2142405,31.4949315 18.9477829,31.6263163 18.7572529,31.7951895 L11.9017983,31.7951895 L18.4144411,25.150903 L21.1375983,25.150903 L27.6502411,31.7951895 L20.242676,31.7951895 Z M28.7738705,30.9693223 L28.4691647,31.4948614 C28.3739707,31.5136407 28.2978298,31.5511292 28.2216178,31.5886877 L21.880381,25.1508329 L30.0117468,25.1508329 L28.7738705,30.9693223 Z M29.6878458,29.411484 L30.6019633,25.150903 L32.1634562,25.150903 L29.6878458,29.411484 Z M32.1634562,24.5878053 L30.7162102,24.5878053 L31.0398979,23.1050841 L32.2586501,24.3813735 C32.2206152,24.4376412 32.1825092,24.5126882 32.1634562,24.5878053 Z M36.8670592,17.0613137 L32.9251497,23.8370551 C32.8299558,23.8745435 32.7346908,23.9121021 32.6394969,23.9683698 L31.1731978,22.4293108 L33.6297553,10.9425663 L36.8860411,16.498286 C36.8670592,16.5921123 36.8289532,16.6859386 36.8289532,16.7985441 C36.8289532,16.8923703 36.8480062,16.9674874 36.8670592,17.0613137 Z" id="Shape"></path>
                </g>
            </g>
        </g>
    </g>
</svg>