<?xml version="1.0" encoding="UTF-8"?>
<svg width="212px" height="125px" viewBox="0 0 212 125" version="1.1" xmlns="http://www.w3.org/2000/svg" xmlns:xlink="http://www.w3.org/1999/xlink">
    <!-- Generator: Sketch 52.5 (67469) - http://www.bohemiancoding.com/sketch -->
    <title>Group 4</title>
    <desc>Created with Sketch.</desc>
    <g id="LANDING-PAGE---PEX-EXTENSION" stroke="none" stroke-width="1" fill="none" fill-rule="evenodd">
        <g id="Home" transform="translate(-601.000000, -2135.000000)">
            <g id="Group-4" transform="translate(601.000000, 2135.000000)">
                <rect id="Rectangle" stroke="#E8E8E8" fill="#FFFFFF" x="0.5" y="0.5" width="211" height="96" rx="8"></rect>
                <g id="Group-61" transform="translate(17.000000, 13.000000)">
                    <rect id="Rectangle" fill="#553C24" x="135" y="0" width="48" height="40" rx="8"></rect>
                    <path d="M7.532,4.06 L9.296,10.934 C9.45,11.508 9.464,11.984 9.478,11.984 L9.506,11.984 C9.506,11.984 9.548,11.494 9.674,10.934 L11.312,4.06 L13.174,4.06 L10.612,14 L8.526,14 L7,8.12 C6.832,7.476 6.748,6.818 6.748,6.818 L6.72,6.818 C6.72,6.818 6.636,7.476 6.468,8.12 L4.942,14 L2.856,14 L0.364,4.06 L2.226,4.06 L3.794,10.934 C3.92,11.494 3.962,11.984 3.962,11.984 L3.99,11.984 C4.004,11.984 4.018,11.508 4.172,10.934 L5.964,4.06 L7.532,4.06 Z M14.504,5.642 L14.504,4.06 L16.268,4.06 L16.268,5.642 L14.504,5.642 Z M14.504,14 L14.504,6.86 L16.282,6.86 L16.282,14 L14.504,14 Z M18.144,11.774 L18.144,4.06 L19.908,4.06 L19.908,11.508 C19.908,12.292 20.174,12.488 20.636,12.488 C20.776,12.488 20.902,12.474 20.902,12.474 L20.902,14.028 C20.902,14.028 20.636,14.07 20.342,14.07 C19.362,14.07 18.144,13.818 18.144,11.774 Z M22.12,11.774 L22.12,4.06 L23.884,4.06 L23.884,11.508 C23.884,12.292 24.15,12.488 24.612,12.488 C24.752,12.488 24.878,12.474 24.878,12.474 L24.878,14.028 C24.878,14.028 24.612,14.07 24.318,14.07 C23.338,14.07 22.12,13.818 22.12,11.774 Z M29.876,14 L29.876,4.06 L33.432,4.06 C35.224,4.06 36.498,4.984 36.498,6.622 C36.498,7.546 36.05,8.344 35.294,8.75 L35.294,8.778 C36.386,9.1 36.904,10.108 36.904,11.116 C36.904,13.104 35.308,14 33.474,14 L29.876,14 Z M31.682,8.12 L33.432,8.12 C34.216,8.12 34.664,7.56 34.664,6.846 C34.664,6.132 34.244,5.614 33.404,5.614 L31.682,5.614 L31.682,8.12 Z M31.682,12.446 L33.614,12.446 C34.538,12.446 35.056,11.844 35.056,11.004 C35.056,10.178 34.524,9.576 33.614,9.576 L31.682,9.576 L31.682,12.446 Z M40.922,14 L40.922,5.614 L37.66,5.614 L37.66,4.06 L45.99,4.06 L45.99,5.614 L42.728,5.614 L42.728,14 L40.922,14 Z M46.62,8.988 C46.62,6.104 48.804,3.892 51.73,3.892 C54.152,3.892 55.398,5.25 55.398,5.25 L54.53,6.594 C54.53,6.594 53.396,5.544 51.814,5.544 C49.714,5.544 48.482,7.112 48.482,8.96 C48.482,10.85 49.756,12.516 51.828,12.516 C53.55,12.516 54.712,11.256 54.712,11.256 L55.664,12.558 C55.664,12.558 54.292,14.168 51.758,14.168 C48.72,14.168 46.62,11.914 46.62,8.988 Z M61.18,14.966 C61.18,14.966 62.076,15.428 63.154,15.428 C64.246,15.428 65.17,14.966 65.17,13.692 L65.17,13.272 C65.17,13.104 65.198,12.894 65.198,12.894 L65.17,12.894 C64.75,13.524 64.134,13.86 63.182,13.86 C61.138,13.86 59.976,12.208 59.976,10.248 C59.976,8.288 61.082,6.692 63.14,6.692 C64.694,6.692 65.254,7.602 65.254,7.602 L65.296,7.602 C65.296,7.602 65.282,7.518 65.282,7.406 L65.282,6.86 L66.948,6.86 L66.948,13.566 C66.948,16.016 65.044,16.94 63.182,16.94 C62.286,16.94 61.334,16.688 60.648,16.324 L61.18,14.966 Z M63.56,12.362 C64.414,12.362 65.212,11.872 65.212,10.262 C65.212,8.638 64.414,8.204 63.448,8.204 C62.37,8.204 61.768,8.988 61.768,10.192 C61.768,11.438 62.412,12.362 63.56,12.362 Z M68.376,10.43 C68.376,8.246 70.126,6.692 72.296,6.692 C74.48,6.692 76.23,8.246 76.23,10.43 C76.23,12.628 74.48,14.168 72.31,14.168 C70.126,14.168 68.376,12.628 68.376,10.43 Z M70.182,10.43 C70.182,11.76 71.148,12.656 72.31,12.656 C73.458,12.656 74.424,11.76 74.424,10.43 C74.424,9.114 73.458,8.204 72.31,8.204 C71.148,8.204 70.182,9.114 70.182,10.43 Z M80.57,10.43 C80.57,8.162 81.914,6.692 83.804,6.692 C85.372,6.692 85.862,7.602 85.862,7.602 L85.89,7.602 C85.89,7.602 85.876,7.42 85.876,7.196 L85.876,4.06 L87.654,4.06 L87.654,14 L85.974,14 L85.974,13.412 C85.974,13.146 86.002,12.95 86.002,12.95 L85.974,12.95 C85.974,12.95 85.372,14.168 83.734,14.168 C81.802,14.168 80.57,12.642 80.57,10.43 Z M82.362,10.43 C82.362,11.788 83.09,12.67 84.14,12.67 C85.064,12.67 85.932,11.998 85.932,10.416 C85.932,9.31 85.344,8.218 84.154,8.218 C83.174,8.218 82.362,9.016 82.362,10.43 Z M89.082,10.43 C89.082,8.246 90.832,6.692 93.002,6.692 C95.186,6.692 96.936,8.246 96.936,10.43 C96.936,12.628 95.186,14.168 93.016,14.168 C90.832,14.168 89.082,12.628 89.082,10.43 Z M90.888,10.43 C90.888,11.76 91.854,12.656 93.016,12.656 C94.164,12.656 95.13,11.76 95.13,10.43 C95.13,9.114 94.164,8.204 93.016,8.204 C91.854,8.204 90.888,9.114 90.888,10.43 Z M99.764,14 L97.58,6.86 L99.456,6.86 L100.702,11.55 C100.8,11.928 100.842,12.306 100.842,12.306 L100.87,12.306 C100.87,12.306 100.94,11.928 101.038,11.55 L102.354,6.874 L103.936,6.874 L105.252,11.55 C105.35,11.928 105.406,12.306 105.406,12.306 L105.434,12.306 C105.434,12.306 105.49,11.928 105.588,11.55 L106.834,6.86 L108.682,6.86 L106.512,14 L104.538,14 L103.334,9.926 C103.222,9.548 103.152,9.156 103.152,9.156 L103.124,9.156 C103.124,9.156 103.068,9.548 102.956,9.926 L101.752,14 L99.764,14 Z M109.858,14 L109.858,6.86 L111.566,6.86 L111.566,7.686 C111.566,7.952 111.538,8.176 111.538,8.176 L111.566,8.176 C111.874,7.574 112.658,6.692 114.1,6.692 C115.682,6.692 116.578,7.518 116.578,9.408 L116.578,14 L114.814,14 L114.814,9.772 C114.814,8.904 114.59,8.316 113.68,8.316 C112.728,8.316 112.028,8.918 111.762,9.772 C111.664,10.066 111.636,10.388 111.636,10.724 L111.636,14 L109.858,14 Z M0.448,29.43 C0.448,27.246 2.198,25.692 4.368,25.692 C6.552,25.692 8.302,27.246 8.302,29.43 C8.302,31.628 6.552,33.168 4.382,33.168 C2.198,33.168 0.448,31.628 0.448,29.43 Z M2.254,29.43 C2.254,30.76 3.22,31.656 4.382,31.656 C5.53,31.656 6.496,30.76 6.496,29.43 C6.496,28.114 5.53,27.204 4.382,27.204 C3.22,27.204 2.254,28.114 2.254,29.43 Z M9.73,33 L9.73,25.86 L11.438,25.86 L11.438,26.686 C11.438,26.952 11.41,27.176 11.41,27.176 L11.438,27.176 C11.746,26.574 12.53,25.692 13.972,25.692 C15.554,25.692 16.45,26.518 16.45,28.408 L16.45,33 L14.686,33 L14.686,28.772 C14.686,27.904 14.462,27.316 13.552,27.316 C12.6,27.316 11.9,27.918 11.634,28.772 C11.536,29.066 11.508,29.388 11.508,29.724 L11.508,33 L9.73,33 Z M22.022,30.382 L22.022,27.386 L21.098,27.386 L21.098,25.972 L22.064,25.972 L22.064,23.914 L23.8,23.914 L23.8,25.972 L25.424,25.972 L25.424,27.386 L23.8,27.386 L23.8,30.158 C23.8,31.334 24.724,31.502 25.214,31.502 C25.41,31.502 25.536,31.474 25.536,31.474 L25.536,33.028 C25.536,33.028 25.326,33.07 24.99,33.07 C23.996,33.07 22.022,32.776 22.022,30.382 Z M26.992,33 L26.992,23.06 L28.77,23.06 L28.77,26.504 C28.77,26.854 28.742,27.106 28.742,27.106 L28.77,27.106 C29.12,26.42 29.988,25.692 31.234,25.692 C32.816,25.692 33.712,26.518 33.712,28.408 L33.712,33 L31.948,33 L31.948,28.772 C31.948,27.904 31.724,27.316 30.814,27.316 C29.876,27.316 29.148,27.932 28.882,28.8 C28.798,29.08 28.77,29.388 28.77,29.724 L28.77,33 L26.992,33 Z M35.574,24.642 L35.574,23.06 L37.338,23.06 L37.338,24.642 L35.574,24.642 Z M35.574,33 L35.574,25.86 L37.352,25.86 L37.352,33 L35.574,33 Z M38.71,32.118 L39.522,30.872 C39.522,30.872 40.306,31.656 41.468,31.656 C41.972,31.656 42.406,31.432 42.406,31.012 C42.406,29.948 38.934,30.088 38.934,27.792 C38.934,26.462 40.124,25.692 41.664,25.692 C43.274,25.692 44.058,26.504 44.058,26.504 L43.4,27.82 C43.4,27.82 42.742,27.204 41.65,27.204 C41.188,27.204 40.74,27.4 40.74,27.848 C40.74,28.856 44.212,28.73 44.212,31.026 C44.212,32.216 43.176,33.168 41.482,33.168 C39.704,33.168 38.71,32.118 38.71,32.118 Z M48.566,31.81 L49.546,30.452 C49.546,30.452 50.624,31.502 52.024,31.502 C52.78,31.502 53.466,31.11 53.466,30.298 C53.466,28.52 48.776,28.828 48.776,25.776 C48.776,24.124 50.204,22.892 52.108,22.892 C54.068,22.892 55.076,23.956 55.076,23.956 L54.292,25.426 C54.292,25.426 53.34,24.558 52.094,24.558 C51.254,24.558 50.596,25.048 50.596,25.748 C50.596,27.512 55.272,27.078 55.272,30.256 C55.272,31.838 54.068,33.168 51.996,33.168 C49.784,33.168 48.566,31.81 48.566,31.81 Z M56.196,30.942 C56.196,28.674 59.262,28.52 60.424,28.52 L60.662,28.52 L60.662,28.422 C60.662,27.484 60.074,27.162 59.29,27.162 C58.268,27.162 57.33,27.848 57.33,27.848 L56.658,26.574 C56.658,26.574 57.764,25.692 59.458,25.692 C61.334,25.692 62.426,26.728 62.426,28.534 L62.426,33 L60.788,33 L60.788,32.412 C60.788,32.132 60.816,31.908 60.816,31.908 L60.788,31.908 C60.802,31.908 60.242,33.168 58.618,33.168 C57.344,33.168 56.196,32.37 56.196,30.942 Z M57.988,30.858 C57.988,31.334 58.338,31.782 59.066,31.782 C60.004,31.782 60.676,30.774 60.676,29.906 L60.676,29.738 L60.368,29.738 C59.458,29.738 57.988,29.864 57.988,30.858 Z M64.582,30.382 L64.582,27.386 L63.658,27.386 L63.658,25.972 L64.624,25.972 L64.624,23.914 L66.36,23.914 L66.36,25.972 L67.984,25.972 L67.984,27.386 L66.36,27.386 L66.36,30.158 C66.36,31.334 67.284,31.502 67.774,31.502 C67.97,31.502 68.096,31.474 68.096,31.474 L68.096,33.028 C68.096,33.028 67.886,33.07 67.55,33.07 C66.556,33.07 64.582,32.776 64.582,30.382 Z M70.434,30.13 L70.434,29.458 C70.434,27.428 72.744,27.106 72.744,25.664 C72.744,25.006 72.156,24.502 71.386,24.502 C70.588,24.502 69.888,25.09 69.888,25.09 L68.908,23.872 C68.908,23.872 69.874,22.864 71.54,22.864 C73.122,22.864 74.592,23.844 74.592,25.496 C74.592,27.806 72.156,28.072 72.156,29.584 L72.156,30.13 L70.434,30.13 Z M70.434,33 L70.434,31.348 L72.156,31.348 L72.156,33 L70.434,33 Z" id="Will-BTC-go-down-on" fill="#28221C"></path>
                    <rect id="Rectangle" fill="#FE8F25" x="0" y="51" width="52" height="19" rx="9.5"></rect>
                    <rect id="Rectangle-Copy-11" fill="#C56000" x="57" y="51" width="52" height="19" rx="9.5"></rect>
                    <path d="M19.618,64 L19.618,60.733 L17.022,56.19 L18.628,56.19 L19.849,58.489 C20.102,58.973 20.311,59.545 20.322,59.534 L20.344,59.534 C20.344,59.534 20.564,58.973 20.817,58.489 L22.027,56.19 L23.633,56.19 L21.037,60.733 L21.037,64 L19.618,64 Z M24.029,61.195 C24.029,59.468 25.206,58.258 26.878,58.258 C28.495,58.258 29.364,59.435 29.364,60.92 C29.364,61.085 29.331,61.459 29.331,61.459 L25.459,61.459 C25.547,62.438 26.306,62.944 27.142,62.944 C28.044,62.944 28.759,62.328 28.759,62.328 L29.298,63.329 C29.298,63.329 28.44,64.132 27.043,64.132 C25.184,64.132 24.029,62.79 24.029,61.195 Z M25.503,60.502 L27.956,60.502 C27.934,59.743 27.461,59.336 26.845,59.336 C26.13,59.336 25.635,59.776 25.503,60.502 Z M30.046,63.307 L30.684,62.328 C30.684,62.328 31.3,62.944 32.213,62.944 C32.609,62.944 32.95,62.768 32.95,62.438 C32.95,61.602 30.222,61.712 30.222,59.908 C30.222,58.863 31.157,58.258 32.367,58.258 C33.632,58.258 34.248,58.896 34.248,58.896 L33.731,59.93 C33.731,59.93 33.214,59.446 32.356,59.446 C31.993,59.446 31.641,59.6 31.641,59.952 C31.641,60.744 34.369,60.645 34.369,62.449 C34.369,63.384 33.555,64.132 32.224,64.132 C30.827,64.132 30.046,63.307 30.046,63.307 Z" id="Yes" fill="#FFFFFF"></path>
                    <path d="M75.99,64 L75.99,56.19 L77.409,56.19 L80.368,60.7 C80.665,61.151 81.017,61.91 81.017,61.91 L81.039,61.91 C81.039,61.91 80.962,61.162 80.962,60.7 L80.962,56.19 L82.37,56.19 L82.37,64 L80.962,64 L78.003,59.501 C77.706,59.05 77.354,58.291 77.354,58.291 L77.332,58.291 C77.332,58.291 77.409,59.039 77.409,59.501 L77.409,64 L75.99,64 Z M83.712,61.195 C83.712,59.479 85.087,58.258 86.792,58.258 C88.508,58.258 89.883,59.479 89.883,61.195 C89.883,62.922 88.508,64.132 86.803,64.132 C85.087,64.132 83.712,62.922 83.712,61.195 Z M85.131,61.195 C85.131,62.24 85.89,62.944 86.803,62.944 C87.705,62.944 88.464,62.24 88.464,61.195 C88.464,60.161 87.705,59.446 86.803,59.446 C85.89,59.446 85.131,60.161 85.131,61.195 Z" id="No" fill="#FFFFFF"></path>
                </g>
                <g id="Group-64" transform="translate(141.000000, 57.017874)">
                    <g id="Group-4-Copy-3" transform="translate(19.000000, 38.000000)" fill="#FFE6CE">
                        <circle id="Oval-Copy-2" cx="15" cy="15" r="15"></circle>
                    </g>
                    <g id="icons8-nui2_filled" transform="translate(4.000000, 16.982126)" fill="#FE8F25" fill-rule="nonzero">
                        <path d="M14.5,0.03125 C13.535156,0.03125 12,0.695313 12,2.4375 L12,27.0625 L5.96875,21.03125 C4.601563,19.664063 2.398438,19.664063 1.03125,21.03125 C-0.335937,22.398438 -0.335937,24.601563 1.03125,25.96875 L12,37 C12.683594,37.683594 16.113281,41 20.78125,41 C20.816406,41.003906 29,41 29,41 C33.425781,41 38,37.632813 38,32 L38,17.59375 C38,16.21875 37.253906,15 35.53125,15 C33.808594,15 33.03125,16.1875 33.03125,17.53125 L33.03125,20 C33.03125,20.550781 32.585938,21 32.03125,21 C31.476563,21 31,20.550781 31,20 L31,15.46875 C31.019531,14.261719 30.28125,13 28.53125,13 C26.78125,13 26,14.355469 26,15.5 L26,18 C26,18.550781 25.554688,19 25,19 C24.449219,19 23.96875,18.550781 23.96875,18 L24,14.5 C24,13.488281 23.210938,12 21.5,12 C19.789063,12 19,13.488281 19,14.5 L19,18 C19,18.550781 18.550781,19 18,19 C17.449219,19 17,18.550781 17,18 L17,2.5625 C17,0.722656 15.507813,0.03125 14.5,0.03125 Z" id="Shape"></path>
                    </g>
                    <g id="Group-17" opacity="0.552804129" transform="translate(0.000000, 0.982126)" fill="#FE8F25" stroke="#FE8F25" stroke-width="0.5">
                        <g id="Group-62" transform="translate(17.984832, 13.608503) rotate(9.000000) translate(-17.984832, -13.608503) translate(1.984832, 2.608503)">
                            <path d="M21.2935269,-0.0372888651 L21.4452389,-0.0385700463 C21.8594377,-0.0420678821 22.1980477,0.290871027 22.2015456,0.70506982 C22.2015814,0.711463746 22.2015814,0.711463746 22.2015445,0.717857667 L22.1226093,9.88969362 C22.1190875,10.2989068 21.7881842,10.6297567 21.3789705,10.6332124 L21.2272585,10.6344936 C20.8130597,10.6379914 20.4744497,10.3050525 20.4709518,9.89085374 C20.470916,9.88445981 20.470916,9.88445981 20.4709529,9.87806589 L20.5498881,0.706229938 C20.5534099,0.297016784 20.8843132,-0.0338331274 21.2935269,-0.0372888651 Z" id="Rectangle" transform="translate(21.336249, 5.297962) rotate(21.000000) translate(-21.336249, -5.297962) "></path>
                            <path d="M27.0933498,5.54458076 L27.2336183,5.54279402 C27.6477982,5.53751821 27.9878343,5.86900051 27.9931101,6.28318047 C27.9931912,6.29272894 27.9931912,6.29272894 27.9931103,6.30227741 L27.8750897,15.57577 C27.8699132,15.9825121 27.5414452,16.3109839 27.1347031,16.3161649 L26.9944347,16.3179517 C26.5802547,16.3232275 26.2402186,15.9917452 26.2349428,15.5775652 C26.2348617,15.5680168 26.2348617,15.5680168 26.2349427,15.5584683 L26.3529633,6.2849757 C26.3581397,5.87823358 26.6866078,5.54976183 27.0933498,5.54458076 Z" id="Rectangle-Copy-5" transform="translate(27.114026, 10.930373) rotate(46.000000) translate(-27.114026, -10.930373) "></path>
                            <path d="M11.2182411,-0.178260437 L11.3680577,-0.176768087 C11.7763821,-0.17270069 12.1064171,0.157282329 12.1105488,0.565606081 L12.203524,9.75407861 C12.2077151,10.168271 11.8753434,10.5074378 11.4611511,10.5116288 C11.4536215,10.5116798 11.4536215,10.5116798 11.4460919,10.51163 L11.2962754,10.5101377 C10.887951,10.5060703 10.557916,10.1760873 10.5537843,9.76776351 L10.460809,0.579290982 C10.4566179,0.165098623 10.7889896,-0.174068169 11.203182,-0.178259252 C11.2107116,-0.178310241 11.2107116,-0.178310241 11.2182411,-0.178260437 Z" id="Rectangle-Copy-2" transform="translate(11.332167, 5.166685) rotate(-26.000000) translate(-11.332167, -5.166685) "></path>
                            <path d="M5.43177577,6.20336966 L5.56155895,6.20444295 C5.97096916,6.20782872 6.30201177,6.53892425 6.3053321,6.948335 L6.38131719,16.3176253 C6.38467635,16.7318253 6.0516241,17.0703238 5.63742416,17.073683 C5.63128191,17.073716 5.63128191,17.073716 5.62513966,17.073682 L5.49535647,17.0726087 C5.08594626,17.0692229 4.75490365,16.7381274 4.75158333,16.3287166 L4.67559824,6.95942633 C4.67223907,6.54522639 5.00529132,6.20672785 5.41949126,6.20336868 C5.42563352,6.20333563 5.42563352,6.20333563 5.43177577,6.20336966 Z" id="Rectangle-Copy-3" transform="translate(5.528458, 11.638526) rotate(-70.000000) translate(-5.528458, -11.638526) "></path>
                            <path d="M5.62250342,14.2901241 L5.74967404,14.2896173 C6.16388431,14.2879666 6.50100624,14.6224122 6.50265695,15.0366224 C6.50266484,15.0395755 6.50266484,15.0395755 6.50265723,15.0425286 L6.46611839,24.4361019 C6.46451617,24.8480077 6.13101859,25.1815371 5.71911293,25.1831786 L5.59194231,25.1836854 C5.17773203,25.1853361 4.8406101,24.8508905 4.8389594,24.4366802 C4.8389515,24.4337272 4.8389515,24.4337272 4.83895911,24.4307741 L4.87549796,15.0372008 C4.87710018,14.625295 5.21059776,14.2917656 5.62250342,14.2901241 Z" id="Rectangle-Copy-4" transform="translate(5.670808, 19.736651) rotate(-99.000000) translate(-5.670808, -19.736651) "></path>
                        </g>
                    </g>
                </g>
            </g>
        </g>
    </g>
</svg>