<?xml version="1.0" encoding="UTF-8"?>
<svg width="512px" height="512px" viewBox="0 0 512 512" version="1.1" xmlns="http://www.w3.org/2000/svg" xmlns:xlink="http://www.w3.org/1999/xlink">
    <!-- Generator: Sketch 52.5 (67469) - http://www.bohemiancoding.com/sketch -->
    <title>Group 8</title>
    <desc>Created with Sketch.</desc>
    <defs>
        <polygon id="path-1" points="0 0.188985933 511.127095 0.188985933 511.127095 444.260521 0 444.260521"></polygon>
    </defs>
    <g id="LANDING-PAGE---PEX-EXTENSION" stroke="none" stroke-width="1" fill="none" fill-rule="evenodd">
        <g id="Group-8">
            <g id="Group-7">
                <g id="Group-4">
                    <g id="Group-3" transform="translate(0.000000, 0.097076)">
                        <mask id="mask-2" fill="white">
                            <use xlink:href="#path-1"></use>
                        </mask>
                        <g id="Clip-2"></g>
                        <path d="M255.563939,0.188985933 C114.419474,0.188985933 -0.000782874618,114.609243 -0.000782874618,255.752142 C-0.000782874618,277.505096 2.72675229,298.619224 7.8404893,318.781377 L81.177052,169.454307 L81.3226667,169.454307 C101.439413,124.91657 141.279902,94.5723498 187.164183,94.5723498 C233.050031,94.5723498 272.888954,124.91657 293.0057,169.454307 L293.152881,169.454307 L428.114202,444.260521 C479.131009,397.536998 511.127095,330.385145 511.127095,255.752142 C511.127095,114.609243 396.708404,0.188985933 255.563939,0.188985933" id="Fill-1" fill="#231F20" mask="url(#mask-2)"></path>
                    </g>
                    <path d="M260.054038,287.986378 C246.200289,245.142782 218.763665,215.952519 187.16528,215.952519 C155.565328,215.952519 128.128705,245.142782 114.276521,287.986378 L114.174747,287.986378 L65.4376709,426.609987 C112.220692,478.664886 180.064607,511.414097 255.563469,511.414097 C283.051763,511.414097 309.517622,507.056617 334.331616,499.024323 L260.154246,287.986378 L260.054038,287.986378 Z" id="Fill-4" fill="#231F20"></path>
                    <g id="Group-6" transform="translate(7.680000, 94.080000)" fill="#FEFEFE">
                        <g id="Group-5">
                            <path d="M285.325857,75.4713835 C265.209111,30.9336465 225.370187,0.5894263 179.48434,0.5894263 C133.600059,0.5894263 93.7595694,30.9336465 73.6428232,75.4713835 L73.4956428,75.4713835 L0.160645872,224.798454 C10.4804991,265.481316 30.5581015,302.267029 57.7567315,332.52983 L106.495374,193.906221 L106.595582,193.906221 C120.449331,151.062625 147.885955,121.872362 179.48434,121.872362 C211.084291,121.872362 238.519349,151.062625 252.374664,193.906221 L252.474872,193.906221 L326.652242,404.944166 C361.878469,393.54238 393.757123,374.709549 420.434358,350.277598 L285.473037,75.4713835 L285.325857,75.4713835 Z" id="Fill-12"></path>
                            <polygon id="Fill-14" points="366.803689 193.787851 408.137903 278.817429 419.632069 251.416817 378.296289 166.387239"></polygon>
                            <path d="M480.555215,93.4162789 C478.093857,74.0448294 460.394628,60.3366948 441.021612,62.7996183 C428.700731,64.3653676 418.692462,72.1064318 413.657013,82.5108355 L413.511398,82.4372453 L388.963582,140.958689 L430.297796,225.986701 L477.220169,114.126444 L476.944597,113.988658 C480.088621,107.863447 481.489967,100.762774 480.555215,93.4162789" id="Fill-16"></path>
                        </g>
                    </g>
                </g>
            </g>
        </g>
    </g>
</svg>