<?xml version="1.0" encoding="UTF-8"?>
<svg width="30px" height="30px" viewBox="0 0 30 30" version="1.1" xmlns="http://www.w3.org/2000/svg" xmlns:xlink="http://www.w3.org/1999/xlink">
    <!-- Generator: Sketch 49.3 (51167) - http://www.bohemiancoding.com/sketch -->
    <title>icon-notifications</title>
    <desc>Created with Sketch.</desc>
    <defs></defs>
    <g id="Page-1" stroke="none" stroke-width="1" fill="none" fill-rule="evenodd">
        <g id="icon-notifications" fill-rule="nonzero">
            <g id="icon-lock" fill="#2DA4C2">
                <rect id="Rectangle" x="0" y="0" width="30" height="30" rx="4"></rect>
            </g>
            <g id="agenda" transform="translate(5.000000, 5.000000)" fill="#FFFFFF">
                <path d="M19.1666667,0 L3.33333333,0 C2.87333172,0 2.5,0.373331719 2.5,0.833333333 L2.5,3.33333333 L0.833333333,3.33333333 C0.373331719,3.33333333 0,3.70666505 0,4.16666667 C0,4.62666828 0.373331719,5 0.833333333,5 L2.5,5 L2.5,9.16666667 L0.833333333,9.16666667 C0.373331719,9.16666667 0,9.53999839 0,10 C0,10.4600016 0.373331719,10.8333333 0.833333333,10.8333333 L2.5,10.8333333 L2.5,15 L0.833333333,15 C0.373331719,15 0,15.3733317 0,15.8333333 C0,16.2933349 0.373331719,16.6666667 0.833333333,16.6666667 L2.5,16.6666667 L2.5,19.1666667 C2.5,19.6266683 2.87333172,20 3.33333333,20 L19.1666667,20 C19.6266683,20 20,19.6266683 20,19.1666667 L20,0.833333333 C20,0.373331719 19.6266683,0 19.1666667,0 Z M4.16666667,18.3333333 L4.16666667,16.6666667 L5,16.6666667 C5.46000161,16.6666667 5.83333333,16.2933349 5.83333333,15.8333333 C5.83333333,15.3733317 5.46000161,15 5,15 L4.16666667,15 L4.16666667,10.8333333 L5,10.8333333 C5.46000161,10.8333333 5.83333333,10.4600016 5.83333333,10 C5.83333333,9.53999839 5.46000161,9.16666667 5,9.16666667 L4.16666667,9.16666667 L4.16666667,5 L5,5 C5.46000161,5 5.83333333,4.62666828 5.83333333,4.16666667 C5.83333333,3.70666505 5.46000161,3.33333333 5,3.33333333 L4.16666667,3.33333333 L4.16666667,1.66666667 L18.3333333,1.66666667 L18.3333333,15 L10.8333333,15 C10.3733317,15 10,15.3733317 10,15.8333333 C10,16.2933349 10.3733317,16.6666667 10.8333333,16.6666667 L18.3333333,16.6666667 L18.3333333,18.3333333 L4.16666667,18.3333333 Z" id="Shape"></path>
                <path d="M12.8888889,8.90909091 C13.6239149,8.90909091 14.2222222,9.45980556 14.2222222,10.1363636 L14.2222222,12.1818182 C14.2222222,12.6334561 14.6204427,13 15.1111111,13 C15.6017795,13 16,12.6334561 16,12.1818182 L16,10.1363636 C16,9.04372334 15.3311632,8.09290658 14.3511284,7.61030715 C14.5520833,7.26573596 14.6666667,6.87222569 14.6666667,6.45454545 C14.6666667,5.10083009 13.4707031,4 12,4 C10.5292969,4 9.33333333,5.10083009 9.33333333,6.45454545 C9.33333333,6.87222569 9.44791667,7.26573596 9.64887156,7.61030715 C8.66883678,8.09290658 8,9.04372334 8,10.1363636 L8,12.1818182 C8,12.6334561 8.3982205,13 8.88888889,13 C9.37955728,13 9.77777778,12.6334561 9.77777778,12.1818182 L9.77777778,10.1363636 C9.77777778,9.45980556 10.3760851,8.90909091 11.1111111,8.90909091 L12.8888889,8.90909091 Z M12,5.63636364 C12.4902344,5.63636364 12.8888889,6.00330698 12.8888889,6.45454545 C12.8888889,6.90578393 12.4902344,7.27272727 12,7.27272727 C11.5097656,7.27272727 11.1111111,6.90578393 11.1111111,6.45454545 C11.1111111,6.00330698 11.5097656,5.63636364 12,5.63636364 Z" id="Shape"></path>
            </g>
        </g>
    </g>
</svg>