<?xml version="1.0" encoding="UTF-8"?>
<svg width="205px" height="89px" viewBox="0 0 205 89" version="1.1" xmlns="http://www.w3.org/2000/svg" xmlns:xlink="http://www.w3.org/1999/xlink">
    <!-- Generator: Sketch 52.1 (67048) - http://www.bohemiancoding.com/sketch -->
    <title>Group 19</title>
    <desc>Created with Sketch.</desc>
    <g id="Page-1" stroke="none" stroke-width="1" fill="none" fill-rule="evenodd">
        <g id="Pop-up" transform="translate(-105.000000, -216.000000)">
            <g id="Group-17" transform="translate(30.000000, 129.000000)">
                <g id="Group-16" transform="translate(25.000000, 88.000000)">
                    <g id="Group-19" transform="translate(50.000000, -0.000000)">
                        <g id="Group-13">
                            <path d="M38.3548387,8.04602437 C49.4945325,-4.7852897 96.6325861,-1.70343224 105.806452,13.2664342" id="Path-5" stroke="#748599" stroke-width="2" opacity="0.488304501" stroke-dasharray="2"></path>
                            <circle id="Oval-Copy" fill="#04C695" opacity="0.179710751" cx="169.951613" cy="52.2419355" r="35.0483871"></circle>
                            <path d="M165.467152,33.6452209 C166.560899,33.6452209 167.498397,34.0098038 168.279645,34.7389683 C169.060893,35.4681328 169.451518,36.3535482 169.451518,37.395212 L169.451518,57.3951643 C169.451518,58.4368281 169.060893,59.3222434 168.279645,60.0514079 C167.498397,60.7805725 166.560899,61.1451553 165.467152,61.1451553 L134.451601,61.1451553 C133.045354,61.1451553 131.860461,60.6633852 130.896922,59.6998463 C129.933383,58.7363073 129.451613,57.5514139 129.451613,56.1451673 L129.451613,31.1452269 C129.451613,29.7389802 129.933383,28.5540868 130.896922,27.5905478 C131.860461,26.6270089 133.045354,26.1452388 134.451601,26.1452388 L163.201532,26.1452388 C164.243196,26.1452388 165.128612,26.5098216 165.857776,27.2389862 C166.586941,27.9681507 166.951523,28.853566 166.951523,29.8952298 C166.951523,30.2598127 166.834336,30.5592908 166.599962,30.7936652 C166.365587,31.0280396 166.066109,31.1452269 165.701526,31.1452269 L135.701598,31.1452269 C135.337015,31.1452269 135.037537,31.2624141 134.803163,31.4967885 C134.568788,31.731163 134.451601,32.030641 134.451601,32.3952239 C134.451601,32.7598067 134.568788,33.0592848 134.803163,33.2936592 C135.037537,33.5280337 135.337015,33.6452209 135.701598,33.6452209 L165.467152,33.6452209 Z M161.951535,49.8951822 C162.628618,49.8951822 163.214554,49.6477865 163.709344,49.1529964 C164.204134,48.6582063 164.451529,48.0722702 164.451529,47.3951881 C164.451529,46.718106 164.204134,46.1321699 163.709344,45.6373798 C163.214554,45.1425897 162.628618,44.8951941 161.951535,44.8951941 C161.274453,44.8951941 160.688517,45.1425897 160.193727,45.6373798 C159.698937,46.1321699 159.451541,46.718106 159.451541,47.3951881 C159.451541,48.0722702 159.698937,48.6582063 160.193727,49.1529964 C160.688517,49.6477865 161.274453,49.8951822 161.951535,49.8951822 Z" id="" fill="#04C695"></path>
                            <circle id="Oval" fill="#EAF2FC" cx="21.1612903" cy="29.0967742" r="21.1612903"></circle>
                            <path d="M29.75803,35.1465676 L16.0156233,26.7383846 L29.75803,3.1412256 L43.5004368,26.7383846 L29.75803,35.1465676 Z M29.75803,37.7684742 L43.5004368,29.4507017 L29.75803,49.4314378 L16.0156233,29.4507017 L29.75803,37.7684742 Z" id="" fill="#2989FF"></path>
                            <path d="M108.179563,4.77121328 L109.862847,16.409923 L100.604783,19.3196004" id="Path-6" fill="#748599" transform="translate(105.233815, 12.045407) rotate(12.000000) translate(-105.233815, -12.045407) "></path>
                        </g>
                    </g>
                </g>
            </g>
        </g>
    </g>
</svg>